<?xml version="1.0" standalone="no"?>
<!DOCTYPE svg PUBLIC "-//W3C//DTD SVG 1.1//EN" "http://www.w3.org/Graphics/SVG/1.1/DTD/svg11.dtd" >
<svg>
<metadata>
Created by FontForge 20090914 at Sun Dec  7 12:43:53 2014
 By www-data
&#194;&#169; 1992, Tilde Ltd. AG Fonts Collection. Created by Andrejs Grinbergs.
</metadata>
<defs>
<font id="AGLettericaRomanMedium" horiz-adv-x="2277" >
  <font-face 
    font-family="AG Letterica-Roman"
    font-weight="400"
    font-stretch="normal"
    units-per-em="4096"
    panose-1="2 11 114 0 0 0 0 0 0 0"
    ascent="3276"
    descent="-820"
    x-height="2142"
    cap-height="2941"
    bbox="-70 -901.003 4096 3690"
    underline-thickness="20"
    underline-position="-123"
    unicode-range="U+0020-U+2219"
  />
<missing-glyph horiz-adv-x="3072" 
d="M512 0v2560h2048v-2560h-2048zM2494 66v2428h-1916v-2428h1916z" />
    <glyph glyph-name=".notdef" horiz-adv-x="3072" 
d="M512 0v2560h2048v-2560h-2048zM2494 66v2428h-1916v-2428h1916z" />
    <glyph glyph-name="space" unicode=" " horiz-adv-x="1139" 
 />
    <glyph glyph-name="exclam" unicode="!" horiz-adv-x="1139" 
d="M766 418v-418h-397v418h397zM668 700h-201l-98 1270v971h397v-971z" />
    <glyph glyph-name="quotedbl" unicode="&#x22;" horiz-adv-x="1454" 
d="M287 1896v1045h299v-1045h-299zM868 1896v1045h299v-1045h-299z" />
    <glyph glyph-name="numbersign" unicode="#" 
d="M1589 860l-119 -860h-270l119 860h-512l-119 -860h-270l119 860h-422l37 258h421l78 582h-422l37 258h422l119 860h274l-118 -860h507l119 860h275l-119 -860h422l-37 -258h-422l-82 -582h422l-37 -258h-422zM1434 1700h-508l-82 -582h512z" />
    <glyph glyph-name="dollar" unicode="$" 
d="M1036 1675v938c-150.667 0 -269.5 -46.167 -356.5 -138.5s-130.5 -204.5 -130.5 -336.5c0 -134 46.167 -238.667 138.5 -314s208.5 -125 348.5 -149zM1229 1262v-1041c114.667 0 213 23.833 295 71.5s143.333 110.5 184 188.5s61 163.333 61 256
c0 110.667 -30.667 207.334 -92 290.001s-137 137.667 -227 165zM2060 2134l-348 0.00390625c-16 128.667 -57.5 233 -124.5 313s-186.5 135.333 -358.5 166v-979c174.667 -50.667 311.5 -94.334 410.5 -131.001s185.833 -83 260.5 -139s131.667 -128.833 171 -218.5
s59 -203.834 59 -342.501c0 -164.667 -29.167 -304.667 -87.5 -420s-133.833 -206.666 -226.5 -273.999s-190.5 -115.333 -293.5 -144s-200.833 -43 -293.5 -43v-393h-193v393c-182 10.667 -339.667 46.667 -473 108s-238.666 160.666 -315.999 297.999
s-116 318.666 -116 543.999h361c8 -148.667 28.833 -266 62.5 -352s88 -151.833 163 -197.5s181.167 -79.5 318.5 -101.5v1086c-132 32 -243.5 64.5 -334.5 97.5s-176 79.167 -255 138.5s-141.833 135.833 -188.5 229.5s-70 207.5 -70 341.5
c0 145.333 36.833 279.166 110.5 401.499s175.167 219 304.5 290s273.666 106.5 432.999 106.5v262h193v-262c203.333 -16 390 -78 560 -186s260.333 -305.333 271 -592z" />
    <glyph glyph-name="percent" unicode="%" horiz-adv-x="3641" 
d="M160 2154c0 126 31.335 242.333 94.002 349s147.667 190.667 255 252s224.333 92 351 92c124.667 0 240.667 -31 348 -93s192.166 -146 254.499 -252s93.5 -222 93.5 -348c0 -126.667 -31.167 -243.667 -93.5 -351s-146.833 -192.333 -253.5 -255s-223 -94 -349 -94
s-242.833 31 -350.5 93s-192.834 147 -255.501 255s-94 225.333 -94 352zM446.002 2154c0 -82 18.667 -154.168 56 -216.501s87.833 -110.666 151.5 -144.999s131.167 -51.5 202.5 -51.5c118 0 216.5 40.333 295.5 121s118.5 178 118.5 292
c0 115.333 -40 211.833 -120 289.5s-176.667 116.5 -290 116.5c-116 0 -214 -39.5 -294 -118.5s-120 -174.833 -120 -287.5zM2085 671.999c0 126 31.333 242.169 94 348.502s147.667 190.166 255 251.499s224.333 92 351 92c124.667 0 240.5 -30.667 347.5 -92
s192 -145.333 255 -252s94.5 -222.667 94.5 -348c0 -126 -31.167 -243 -93.5 -351s-147.166 -193.333 -254.5 -256c-107.333 -62.667 -223.666 -94 -349 -94c-126.667 0 -243.667 31.167 -351 93.5s-192.333 147.166 -255 254.499s-94 225 -94 353zM2372 672.001
c0 -122.667 40 -222.333 120 -299s176.333 -115 289 -115c118 0 216.5 40.5 295.5 121.5s118.5 178.5 118.5 292.5s-39.833 210 -119.5 288s-176.5 117 -290.5 117c-116 0 -213.833 -39.5 -293.5 -118.5s-119.5 -174.5 -119.5 -286.5zM2740 2879l-1622 -2957h-221l1618 2957
h225z" />
    <glyph glyph-name="ampersand" unicode="&#x26;" horiz-adv-x="2732" 
d="M1708 578l-663.999 811.002c-184 -116.667 -313.833 -218.334 -389.5 -305.001s-113.5 -202.334 -113.5 -347.001c0 -112.667 30.5 -205.667 91.5 -279s132.667 -126.333 215 -159s156.166 -49 221.499 -49c266 0 479 109.333 639 328zM1171 1798
c112.667 78 202.334 154.667 269.001 230s100 168 100 278c0 116.667 -32.833 199.834 -98.5 249.5c-65.667 49.667 -137.834 74.5 -216.501 74.5c-131.333 0 -221.5 -34.167 -270.5 -102.5s-73.5 -140.833 -73.5 -217.5c0 -146 96.667 -316.667 290 -512zM2118 635.002
l523.999 -634.997h-467l-274 336c-112 -129.333 -233 -227.833 -363 -295.5s-294.667 -101.5 -494 -101.5c-222 0 -397.667 44.5 -527 133.5s-217.833 192.167 -265.5 309.5s-71.5 226.333 -71.5 327c0 102.667 9.66699 194.5 29 275.5s52.666 156 99.999 225
s114.666 138.167 201.999 207.5s198.333 141.666 333 216.999c-80.667 99.333 -142.167 180 -184.5 242s-74.166 125.333 -95.499 190s-32 138 -32 220c0 180 62.333 334.167 187 462.5s294.667 192.5 510 192.5s379 -60 491 -180s168 -262 168 -426
c0 -126.667 -26.5 -238.334 -79.5 -335c-53 -96.667 -114.667 -175.334 -185 -236.001s-158.166 -127 -263.499 -199l536 -639c50.667 139.333 90.334 292 119.001 458h340c-19.333 -244.667 -98.333 -494.334 -237 -749.001z" />
    <glyph glyph-name="quotesingle" unicode="'" horiz-adv-x="782" 
d="M242 1896v1045h299v-1045h-299z" />
    <glyph glyph-name="parenleft" unicode="(" horiz-adv-x="1364" 
d="M971 3002l250.001 -0.00195312c-104 -195.333 -187.167 -357.666 -249.5 -487c-62.333 -129.333 -116.833 -268.166 -163.5 -416.5c-46.667 -148.333 -82.334 -313.5 -107.001 -495.5s-37 -392.667 -37 -632c0 -159.333 13 -314 39 -464s63.667 -297 113 -441
s105.833 -285.167 169.5 -423.5s143.5 -301.833 239.5 -490.5h-242c-124 186.667 -225.5 348.834 -304.5 486.501s-149 282 -210 433s-107.833 309.333 -140.5 475s-49 339.834 -49 522.501c0 346.667 57.333 672.667 172 978s288 623.666 520 955z" />
    <glyph glyph-name="parenright" unicode=")" horiz-adv-x="1364" 
d="M393 -848l-250 0.00195312c102.667 191.333 186 354.5 250 489.5s118.833 275.333 164.5 421s80.834 309.5 105.501 491.5s37 392 37 630c0 211.333 -22.5 413.666 -67.5 606.999s-106.833 381.666 -185.5 564.999s-181.334 398.666 -308.001 646h242
c116 -172 216.333 -332 301 -480s157 -295.667 217 -443s106 -303 138 -467s48 -339.667 48 -527c0 -346 -57 -671.667 -171 -977s-287.667 -624 -521 -956z" />
    <glyph glyph-name="asterisk" unicode="*" horiz-adv-x="1593" 
d="M160 2421l82 225l430 -156v451h246v-451l430 156l82 -225l-443 -140l275 -376l-201 -140l-266 385l-267 -385l-200 140l274 376z" />
    <glyph glyph-name="plus" unicode="+" horiz-adv-x="2392" 
d="M1049 1184v884h299v-884h884v-299h-884v-885h-299v885h-889v299h889z" />
    <glyph glyph-name="comma" unicode="," horiz-adv-x="1139" 
d="M356 0l0.000976562 434h426v-401c0 -236.667 -47.333 -398.167 -142 -484.5s-189.334 -136.5 -284.001 -150.5v188c144.667 14 217 152 217 414h-217z" />
    <glyph glyph-name="hyphen" unicode="-" horiz-adv-x="1364" 
d="M1184 1319v-369h-1004v369h1004z" />
    <glyph glyph-name="period" unicode="." horiz-adv-x="1139" 
d="M782 434v-434h-426v434h426z" />
    <glyph glyph-name="slash" unicode="/" horiz-adv-x="1139" 
d="M1208 3019l-1003 -3097h-275l1008 3097h270z" />
    <glyph glyph-name="zero" unicode="0" 
d="M1741 1401c0 242 -21.667 449.5 -65 622.5s-109.833 305 -199.5 396s-202.167 136.5 -337.5 136.5c-401.333 0 -602 -385 -602 -1155s200.667 -1155 602 -1155c201.333 0 352 100 452 300s150 485 150 855zM2126 1401c0 -171.333 -14.167 -341.334 -42.5 -510.001
s-78.5 -326.5 -150.5 -473.5s-173.333 -266.333 -304 -358s-294 -137.5 -490 -137.5c-195.333 0 -358.666 45.833 -489.999 137.5s-233 211.834 -305 360.501s-122 306.5 -150 473.5s-42 336.167 -42 507.5c0 172 14 341.333 42 508s77.833 324 149.5 472
s173.334 268 305.001 360s295.167 138 490.5 138c196 0 359.667 -46 491 -138s232.666 -211.167 303.999 -357.5s121.166 -303.666 149.499 -472c28.333 -168.333 42.5 -338.5 42.5 -510.5z" />
    <glyph glyph-name="one" unicode="1" 
d="M1470 2879v-2879h-385v2044h-671v287c176.667 12.667 310.667 31.834 402 57.5c91.333 25.667 166.833 75.5 226.5 149.5s108.167 187.667 145.5 341h282z" />
    <glyph glyph-name="two" unicode="2" 
d="M541 1847l-360.995 0.00195312c0 408 104.167 682 312.5 822s436.166 210 683.499 210c166.667 0 318.667 -34.667 456 -104s245.833 -169.166 325.5 -299.5c79.667 -130.333 119.5 -282.5 119.5 -456.5c0 -163.333 -32.333 -302 -97 -416
s-150.334 -210.833 -257.001 -290.5s-245.334 -164.834 -416.001 -255.501l-299 -164c-301.333 -166 -466.666 -350.333 -495.999 -553h1565v-340h-1971c6.66699 192 38.5 359.833 95.5 503.5s134 266.167 231 367.5s213.5 192 349.5 272l381 221
c126.667 72 225.167 133.5 295.5 184.5s126.833 115.333 169.5 193s64 175.834 64 294.501c0 84.667 -19.333 166.5 -58 245.5s-100.834 144.5 -186.501 196.5s-194.167 78 -325.5 78c-126 0 -228.5 -25.333 -307.5 -76s-137.333 -113.334 -175 -188
c-37.667 -74.667 -62.334 -147.334 -74.001 -218.001s-19.834 -146.334 -24.501 -227.001z" />
    <glyph glyph-name="three" unicode="3" 
d="M918 1327l0.00195312 311c81.333 -5.33301 144 -8 188 -8c157.333 0 288.166 37 392.499 111s156.5 194 156.5 360c0 68 -15.833 136.5 -47.5 205.5s-87.5 127.833 -167.5 176.5s-186 73 -318 73c-222 0 -367.167 -60 -435.5 -180s-110.166 -266.333 -125.499 -439h-352
c0 160.667 26.833 311.5 80.5 452.5s149.667 257.833 288 350.5s325.5 139 561.5 139c181.333 0 339.333 -32.333 474 -97s237.5 -154.5 308.5 -269.5s106.5 -245.167 106.5 -390.5c0 -116 -18.833 -215.333 -56.5 -298s-84.834 -148.334 -141.501 -197.001
s-113.667 -81.667 -171 -99v-8c319.333 -103.333 479 -327.333 479 -672c0 -165.333 -36.833 -318.166 -110.5 -458.499s-188.5 -253.333 -344.5 -339s-349.667 -128.5 -581 -128.5c-195.333 0 -373 42.333 -533 127c-146.667 77.333 -251.167 186.333 -313.5 327
s-101.166 309 -116.499 505h373c5.33301 -114 23.166 -216.833 53.499 -308.5s90 -169 179 -232s216.167 -94.5 381.5 -94.5c185.333 0 336.166 51.5 452.499 154.5s174.5 237.167 174.5 402.5c0 352 -224 528 -672 528c-18 0 -45.333 -0.666992 -82 -2s-63.667 -2 -81 -2z
" />
    <glyph glyph-name="four" unicode="4" 
d="M2142 700h-422v-700h-360v700h-1258v353l1319 1826h299v-1867h422v-312zM1352 2318l-918 -1306h926v1306h-8z" />
    <glyph glyph-name="five" unicode="5" 
d="M725 2466l-123.004 -791c157.333 120 343 180 557 180c159.333 0 311.833 -36.5 457.5 -109.5s263.5 -179.5 353.5 -319.5s135 -304 135 -492c0 -140 -27.667 -286.333 -83 -439s-160.666 -286.334 -315.999 -401.001s-370.333 -172 -645 -172
c-102.667 0 -204.167 12.167 -304.5 36.5s-195.166 66.5 -284.499 126.5s-164.166 142.167 -224.499 246.5s-99.166 232.833 -116.499 385.5h373c18.667 -162 82.5 -283.167 191.5 -363.5s248.5 -120.5 418.5 -120.5c120 0 226.167 29.333 318.5 88s163.333 138.667 213 240
s74.5 212 74.5 332c0 133.333 -28 248.333 -84 345s-132.5 169.834 -229.5 219.501s-205.5 74.5 -325.5 74.5c-214.667 0 -392 -91.667 -532 -275l-311 17l217 1544h1491v-352h-1221z" />
    <glyph glyph-name="six" unicode="6" 
d="M2060 2114h-351.996c-52.667 294.667 -218 442 -496 442c-171.333 0 -308.166 -62.333 -410.499 -187s-173.5 -269.167 -213.5 -433.5s-60 -312.5 -60 -444.5l9 -8c55.333 96.667 138.833 179.5 250.5 248.5s256.167 103.5 433.5 103.5c132 0 267.5 -30.333 406.5 -91
s256.167 -160 351.5 -298s143 -312.667 143 -524c0 -150 -21.5 -281.333 -64.5 -394s-113.167 -221.667 -210.5 -327c-84 -94 -179.333 -164 -286 -210s-254.334 -69 -443.001 -69c-128 0 -260 33.167 -396 99.5s-251 172.5 -345 318.5
c-147.333 231.333 -221 564.333 -221 999c0 246 31.5 485 94.5 717s174.167 427.167 333.5 585.5s371.666 237.5 636.999 237.5c90.667 0 182.167 -13.167 274.5 -39.5s180.166 -69.5 263.499 -129.5s152.166 -139.333 206.499 -238s85.833 -218 94.499 -358zM578.004 885
c0 -108.667 21.998 -211.497 65.998 -308.497s111.833 -176.333 203.5 -238s203.834 -92.5 336.501 -92.5c112.667 0 211.834 27.833 297.501 83.5s151.667 133.167 198 232.5s69.5 213.666 69.5 342.999c0 94 -18.667 187.5 -56 280.5s-100 170.5 -188 232.5
s-200.667 93 -338 93c-126 0 -233.667 -27.833 -323 -83.5s-156 -130.834 -200 -225.501s-66 -200.334 -66 -317.001z" />
    <glyph glyph-name="seven" unicode="7" 
d="M152 2466l-0.000976562 352h1990v-315c-86 -89.333 -184.833 -210.5 -296.5 -363.5s-225.5 -335.667 -341.5 -548s-223.667 -455.333 -323 -729s-173.666 -561.167 -222.999 -862.5h-397c32 257.333 105.667 536.5 221 837.5s257.833 595 427.5 882
s345.5 535.833 527.5 746.5h-1585z" />
    <glyph glyph-name="eight" unicode="8" 
d="M2015 2138c0 -179.333 -35.5 -311.835 -106.5 -397.502s-158.167 -155.167 -261.5 -208.5c174 -73.333 296 -174.166 366 -302.499s105 -261.166 105 -398.499c0 -160 -35.167 -309.333 -105.5 -448s-178.833 -250.167 -325.5 -334.5s-328 -126.5 -544 -126.5
c-105.333 0 -221.5 16.833 -348.5 50.5s-241.5 90.5 -343.5 170.5c-127.333 101.333 -208.333 210.333 -243 327s-52 235.667 -52 357c0 335.333 162.333 569 487 701c-123.333 47.333 -219 119.333 -287 216s-102 211.667 -102 345c0 117.333 27.167 236.166 81.5 356.5
c54.333 120.333 146.833 222.666 277.5 307c130.667 84.333 301.667 126.5 513 126.5c198.667 0 365.167 -36.667 499.5 -110s232.833 -166.833 295.5 -280.5s94 -230.5 94 -350.5zM1135 1352c-130 0 -239.5 -25 -328.5 -75s-155.5 -115.833 -199.5 -197.5
s-66 -168.5 -66 -260.5c0 -148 46.5 -280.5 139.5 -397.5s251.167 -175.5 474.5 -175.5c161.333 0 298 39.833 410 119.5s168 221.5 168 425.5c0 124 -26.333 228.333 -79 313s-124.167 147.167 -214.5 187.5s-191.833 60.5 -304.5 60.5zM1130 1663
c101.333 0 190.832 20 268.499 60s137.667 95.5 180 166.5s63.5 149.833 63.5 236.5c0 66 -16.667 132 -50 198s-90.166 121.167 -170.499 165.5s-185.5 66.5 -315.5 66.5c-172.667 0 -295.667 -46 -369 -138s-110 -196.333 -110 -313
c0 -131.333 49.5 -237.833 148.5 -319.5s217.167 -122.5 354.5 -122.5z" />
    <glyph glyph-name="nine" unicode="9" 
d="M1077 963c-176.667 0 -333.501 37.667 -470.501 113s-243.667 183.166 -320 323.499s-114.5 304.5 -114.5 492.5c0 133.333 20 259.333 60 377.999c40 118.667 99.333 223.667 178 315s176.334 163.166 293.001 215.499s248.334 78.5 395.001 78.5
c279.333 0 493.666 -72.5 642.999 -217.5s247.333 -315.5 294 -511.5s70 -398 70 -606c0 -128 -10.167 -274.667 -30.5 -440s-64.5 -339.333 -132.5 -522s-174.5 -338.334 -319.5 -467.001s-332.167 -193 -561.5 -193c-207.333 0 -375.166 41.833 -503.499 125.5
s-219.166 184.834 -272.499 303.501s-80 232.334 -80 341.001h360c11.333 -147.333 59.166 -262.666 143.499 -345.999s199.166 -125 344.499 -125c130.667 0 242 38 334 114s167.167 193.333 225.5 352s102.5 362.334 132.5 611.001l-8 9
c-34.667 -71.333 -86.5 -133 -155.5 -185s-147.333 -91.5 -235 -118.5s-177.5 -40.5 -269.5 -40.5zM1130 1286c137.333 0 263.833 46.833 379.5 140.5s173.5 265.5 173.5 515.5c0 177.333 -48.167 324 -144.5 440s-241.833 174 -436.5 174
c-167.333 0 -302 -59.667 -404 -179s-153 -275.333 -153 -468c0 -415.333 195 -623 585 -623z" />
    <glyph glyph-name="colon" unicode=":" horiz-adv-x="1139" 
d="M782 434v-434h-426v434h426zM782 2114v-435h-426v435h426z" />
    <glyph glyph-name="semicolon" unicode=";" horiz-adv-x="1139" 
d="M356 0l0.000976562 434h426v-401c0 -236.667 -47.333 -398.167 -142 -484.5s-189.334 -136.5 -284.001 -150.5v188c144.667 14 217 152 217 414h-217zM782.001 1679h-426v435h426v-435z" />
    <glyph glyph-name="less" unicode="&#x3c;" horiz-adv-x="2392" 
d="M2195 373v-328l-1998 848v287l1998 848v-328l-1597 -664z" />
    <glyph glyph-name="equal" unicode="=" horiz-adv-x="2392" 
d="M2232 1597v-299h-2072v299h2072zM2232 770v-299h-2072v299h2072z" />
    <glyph glyph-name="greater" unicode="&#x3e;" horiz-adv-x="2392" 
d="M197 1700v328l1998 -848v-287l-1998 -848v328l1597 663z" />
    <glyph glyph-name="question" unicode="?" 
d="M590 2019h-360.999c4.66699 115.333 13.834 214.166 27.501 296.5c13.667 82.333 43.167 164 88.5 245s114.666 157.167 207.999 228.5c162.667 126 360.667 189 594 189c154.667 0 298.5 -31 431.5 -93s239 -154 318 -276s118.5 -266.667 118.5 -434
c0 -129.333 -27.333 -239.333 -82 -330s-155.667 -206 -303 -346c-102 -98 -175.5 -175.5 -220.5 -232.5s-78.833 -124.5 -101.5 -202.5s-34 -182.667 -34 -314h-361c0 154 12.167 276.5 36.5 367.5s61.333 170.333 111 238s130.5 159.167 242.5 274.5
c104.667 108 177 186 217 234s68.333 96.167 85 144.5s25 112.166 25 191.5c0 68 -15 137.5 -45 208.5s-81.833 131.667 -155.5 182s-171.834 75.5 -294.501 75.5c-363.333 0 -545 -215.667 -545 -647zM1303 418v-418h-398v418h398z" />
    <glyph glyph-name="at" unicode="@" horiz-adv-x="4157" 
d="M2503 1671c0 100.667 -33.667 188.666 -101 263.999s-145.666 113 -235 113c-114 0 -218.667 -41.5 -314 -124.5s-170 -187.167 -224 -312.5s-81 -246 -81 -362c0 -117.333 31.833 -212.833 95.5 -286.5s146.5 -110.5 248.5 -110.5c109.333 0 211 43.833 305 131.5
s168.5 196.334 223.5 326.001s82.5 250.167 82.5 361.5zM2630 2023l82 254.002h278c-35.333 -130 -90.666 -322.833 -166 -578.5l-158 -544c-30 -107 -45 -177.833 -45 -212.5c0 -79.333 28.667 -119 86 -119c91.333 0 182.166 43.167 272.5 129.5
c90.333 86.333 164.5 198.333 222.5 336s87 277.5 87 419.5c0 211.333 -51.167 397.166 -153.5 557.499s-240.666 283.666 -414.999 370c-174.333 86.333 -365.833 129.5 -574.5 129.5c-180 0 -346.167 -33.5 -498.5 -100.5s-284.333 -160.667 -396 -281
s-198 -260.333 -259 -420s-91.5 -329.5 -91.5 -509.5c0 -237.333 56.167 -453.833 168.5 -649.5s266.166 -349.334 461.499 -461.001s410 -167.5 644 -167.5c125.333 0 249.833 18.833 373.5 56.5s238.834 91.667 345.5 162c106.667 70.333 198.667 153.166 276 248.499h275
c-88 -146 -198.667 -273.667 -332 -383s-281 -193 -443 -251s-329.667 -87 -503 -87c-288 0 -551.667 68.833 -791 206.5s-428.166 325.834 -566.499 564.501s-207.5 500.667 -207.5 786c0 278.667 69.667 536.334 209 773.001s327.666 423.667 564.999 561s494 206 770 206
c188.667 0 368 -31.167 538 -93.5s321 -151.5 453 -267.5s234.667 -252.167 308 -408.5s110 -325.833 110 -508.5c0 -176.667 -31.833 -338.334 -95.5 -485.001s-146.834 -272.334 -249.5 -377.001c-102.667 -104.667 -210.667 -184.5 -324 -239.5
s-216.666 -82.5 -309.999 -82.5c-72.667 0 -133.5 22.167 -182.5 66.5s-75.5 108.166 -79.5 191.499l-8 -4c-158.667 -169.333 -322.334 -254 -491.001 -254c-114 0 -217.333 29.667 -310 89s-164.667 139.333 -216 240s-77 209.334 -77 326.001
c0 185.333 40.167 365.833 120.5 541.5s192.833 317.834 337.5 426.501s307.667 163 489 163c214.667 0 371.667 -106.667 471 -320z" />
    <glyph glyph-name="A" unicode="A" horiz-adv-x="2732" 
d="M1954 856h-1180l-307 -856h-410l1106 2941h451l1065 -2941h-434zM897 1208h913l-434 1295h-8z" />
    <glyph glyph-name="B" unicode="B" horiz-adv-x="2732" 
d="M700 2601l0.000976562 -905h717c201.333 0 354.166 36 458.499 108s156.5 194.333 156.5 367c0 142 -48.167 249.167 -144.5 321.5s-251.833 108.5 -466.5 108.5h-721zM303.001 0v2941h1294c176.667 0 327.667 -33.167 453 -99.5s219.833 -155.5 283.5 -267.5
s95.5 -236.667 95.5 -374c0 -286.667 -131 -491.667 -393 -615c154 -62.667 281.167 -143 381.5 -241s150.5 -256.667 150.5 -476c0 -160 -38.5 -305.833 -115.5 -437.5s-191.5 -236.334 -343.5 -314.001s-332 -116.5 -540 -116.5h-1266zM700.001 1372v-1032h848
c203.333 0 358 47.667 464 143s159 226.666 159 393.999c0 330 -229.333 495 -688 495h-783z" />
    <glyph glyph-name="C" unicode="C" horiz-adv-x="2957" 
d="M2761 2056l-384.999 0.00195312c-49.333 230 -152.5 389.167 -309.5 477.5s-328.5 132.5 -514.5 132.5c-181.333 0 -344.833 -44.333 -490.5 -133s-260.667 -220.834 -345 -396.501s-126.5 -388.167 -126.5 -637.5c0 -374.667 76.5 -672.5 229.5 -893.5
s401.5 -331.5 745.5 -331.5c104.667 0 212.667 22 324 66s214.666 126.167 309.999 246.5s163.666 285.166 205 494.499h385c-48.667 -332 -155.834 -584.167 -321.5 -756.5c-165.667 -172.333 -333.834 -282.5 -504.5 -330.5c-170.667 -48 -324 -72 -460 -72
c-174 0 -339.333 29.5 -496 88.5s-297.5 151.5 -422.5 277.5s-223.667 289.333 -296 490s-108.5 437 -108.5 709c0 226.667 31.333 434 94 622s153.5 349.833 272.5 485.5s263.5 240.334 433.5 314c170 73.667 360.667 110.5 572 110.5c240 0 448 -44.5 624 -133.5
s312.5 -206.833 409.5 -353.5s155.5 -305.334 175.5 -476z" />
    <glyph glyph-name="D" unicode="D" horiz-adv-x="2957" 
d="M332 0v2941h1192c190 0 361.5 -34.333 514.5 -103s283 -165.834 390 -291.5c107 -125.667 189.167 -276.334 246.5 -452c57.333 -175.667 86 -370.167 86 -583.5c0 -178 -21.333 -354.833 -64 -530.5s-112.334 -337.5 -209 -485.5
c-96.667 -148 -226.834 -267.5 -390.5 -358.5c-163.667 -91 -360.5 -136.5 -590.5 -136.5h-1175zM729 2601l-0.00195312 -2261h770c171.333 0 321.333 44.167 450 132.5s227.834 218.833 297.501 391.5s104.5 380.334 104.5 623.001c0 243.333 -35.333 448.166 -106 614.499
s-172.167 291.166 -304.5 374.5c-132.333 83.333 -289.166 125 -470.499 125h-741z" />
    <glyph glyph-name="E" unicode="E" horiz-adv-x="2732" 
d="M2523 352v-352h-2171v2941h2142v-352h-1744v-901h1609v-353h-1609v-983h1773z" />
    <glyph glyph-name="F" unicode="F" horiz-adv-x="2503" 
d="M750 1335v-1335h-398v2941h2036v-352h-1638v-901h1441v-353h-1441z" />
    <glyph glyph-name="G" unicode="G" horiz-adv-x="3187" 
d="M1593 1233v339.997h1291v-1573h-258l-95 381c-64.667 -91.333 -147.834 -172 -249.5 -242c-101.667 -70 -214.167 -123.667 -337.5 -161s-251 -56 -383 -56c-224.667 0 -406.334 31.167 -545.001 93.5s-257.667 141.833 -357 238.5
c-105.333 100.667 -190.166 206.834 -254.499 318.501s-111.333 222 -141 331s-48.167 209 -55.5 300s-11 188.167 -11 291.5c0 251.333 51.5 494 154.5 728s259.667 425.167 470 573.5s466.166 222.5 767.499 222.5c190.667 0 376.334 -36.333 557.001 -109
s333.667 -182.334 459 -329c125.333 -146.667 201.666 -324.334 228.999 -533h-385c-56.667 230.667 -167 391.334 -331 482.001s-347 136 -549 136c-179.333 0 -342 -46.5 -488 -139.5s-261.667 -229.667 -347 -410s-128 -394.166 -128 -641.499
c0 -220 29 -420.5 87 -601.5s160 -328.167 306 -441.5s341.333 -170 586 -170c242.667 0 443.334 63 602.001 189c121.333 96 205.666 207.167 253 333.5c47.333 126.333 71 275.833 71 448.5h-918z" />
    <glyph glyph-name="H" unicode="H" horiz-adv-x="2957" 
d="M2249 1724v1217h397v-2941h-397v1372h-1536v-1372h-398v2941h398v-1217h1536z" />
    <glyph glyph-name="I" unicode="I" horiz-adv-x="1139" 
d="M770 2941v-2941h-397v2941h397z" />
    <glyph glyph-name="J" unicode="J" horiz-adv-x="2048" 
d="M70 946h372v-205c0 -169.333 38 -291.5 114 -366.5s185.667 -112.5 329 -112.5c314 0 471 169.333 471 508v2171h397v-2146c0 -214 -40.667 -386.333 -122 -517s-185.5 -222.667 -312.5 -276s-264.833 -80 -413.5 -80c-208.667 0 -375.667 39 -501 117
s-212.333 173 -261 285s-73 222.333 -73 331v291z" />
    <glyph glyph-name="K" unicode="K" horiz-adv-x="2732" 
d="M709 1032v-1032h-398v2941h398v-1425l1425 1425h549l-1225 -1188l1258 -1753h-516l-1029 1475z" />
    <glyph glyph-name="L" unicode="L" 
d="M709 2941v-2589h1491v-352h-1889v2941h398z" />
    <glyph glyph-name="M" unicode="M" horiz-adv-x="3412" 
d="M3117 0h-385v1737c0 13.333 1.33301 112 4 296s4 329.667 4 437h-8l-827 -2470h-394l-827 2466h-8c0 -105.333 1.33301 -249.666 4 -433c2.66699 -183.333 4 -282 4 -296v-1737h-385v2941h569l840 -2486h8l836 2486h565v-2941z" />
    <glyph glyph-name="N" unicode="N" horiz-adv-x="2957" 
d="M2261 565v2376h385v-2941h-446l-1495 2376h-9v-2376h-385v2941h471l1471 -2376h8z" />
    <glyph glyph-name="O" unicode="O" horiz-adv-x="3187" 
d="M2617 1470c0 231.333 -41.167 437.5 -123.5 618.5s-201 322.5 -356 424.5s-336.5 153 -544.5 153s-389.5 -51 -544.5 -153s-273.667 -243.5 -356 -424.5s-123.5 -387.167 -123.5 -618.5s41.333 -437.666 124 -618.999s201.667 -322.833 357 -424.5
s336.333 -152.5 543 -152.5s387.667 50.833 543 152.5s274.333 243.167 357 424.5s124 387.666 124 618.999zM3027 1470c0 -172.667 -24.668 -348.331 -74.001 -526.998s-129.833 -345.334 -241.5 -500.001s-260.667 -280.167 -447 -376.5s-410.166 -144.5 -671.499 -144.5
c-260.667 0 -484 48.167 -670 144.5s-335.167 222.5 -447.5 378.5s-193 322.667 -242 500s-73.5 352.333 -73.5 525c0 173.333 24.5 348.666 73.5 525.999s129.667 344.166 242 500.5c112.333 156.333 261.833 282.5 448.5 378.5s409.667 144 669 144
c260 0 483.667 -48 671 -144s336.666 -221.5 448 -376.5c111.333 -155 191.666 -321.833 241 -500.5c49.333 -178.667 74 -354.667 74 -528z" />
    <glyph glyph-name="P" unicode="P" horiz-adv-x="2732" 
d="M750 2601v-1020h790c398.667 0 598 176 598 528c0 328 -194 492 -582 492h-806zM750 1241v-1241h-398v2941h1323c176.667 0 331.167 -35.333 463.5 -106s233.666 -169 304 -295c70.333 -126 105.5 -268 105.5 -426c0 -146.667 -29.833 -286.667 -89.5 -420
s-155 -242.166 -286 -326.499s-296.833 -126.5 -497.5 -126.5h-925z" />
    <glyph glyph-name="Q" unicode="Q" horiz-adv-x="3187" 
d="M1720 606l201 245.999l373 -291c104 104 183.833 234 239.5 390s83.5 329 83.5 519c0 231.333 -41.167 437.5 -123.5 618.5s-201 322.5 -356 424.5s-336.5 153 -544.5 153s-389.5 -51 -544.5 -153s-273.667 -243.5 -356 -424.5s-123.5 -387.167 -123.5 -618.5
s41.333 -437.666 124 -618.999s201.667 -322.833 357 -424.5s336.333 -152.5 543 -152.5c164.667 0 309.667 31.667 435 95zM3002 7.99902l-200 -236.998l-451 348c-205.333 -131.333 -458 -197 -758 -197c-260.667 0 -484 48.167 -670 144.5s-335.167 222.5 -447.5 378.5
s-193 322.667 -242 500s-73.5 352.333 -73.5 525c0 173.333 24.5 348.666 73.5 525.999s129.667 344.166 242 500.5c112.333 156.333 261.833 282.5 448.5 378.5s409.667 144 669 144c260 0 483.667 -48 671 -144s336.666 -221.5 448 -376.5
c111.333 -155 191.666 -321.833 241 -500.5c49.333 -178.667 74 -354.667 74 -528c0 -205.333 -34.833 -411.833 -104.5 -619.5s-176.834 -384.834 -321.5 -531.501z" />
    <glyph glyph-name="R" unicode="R" horiz-adv-x="2957" 
d="M758 1262v-1262h-398v2941h1360c280.667 0 512 -60.333 694 -181s273 -324 273 -610c0 -193.333 -37.333 -341.166 -112 -443.499s-174 -189.166 -298 -260.499c111.333 -46 196.166 -104.167 254.5 -174.5c58.333 -70.333 91.166 -196.5 98.5 -378.5l24 -533
c2 -85.333 12.333 -147.166 31 -185.499s57.667 -74.5 117 -108.5v-66h-488c-17.333 54.667 -31 130 -41 226s-17.167 190.5 -21.5 283.5s-6.5 168.833 -6.5 227.5c0 156.667 -34.5 283.334 -103.5 380.001s-209.5 145 -421.5 145h-962zM758 2601v-999.001h921
c178 0 322.167 35.333 432.5 106s165.5 204.334 165.5 401.001c0 328 -176 492 -528 492h-991z" />
    <glyph glyph-name="S" unicode="S" horiz-adv-x="2732" 
d="M2458 2081l-372.999 0.00390625c-6.66699 142 -45.667 257.833 -117 347.5s-161.166 153.834 -269.499 192.5c-108.333 38.667 -222.5 58 -342.5 58c-103.333 0 -205.333 -13.5 -306 -40.5s-186.834 -78.833 -258.501 -155.5s-107.5 -183.334 -107.5 -320.001
c0 -113.333 31.5 -197.333 94.5 -252s147.5 -95 253.5 -121l840 -193c445.333 -105.333 668 -367.333 668 -786c0 -216.667 -57.5 -391.334 -172.5 -524.001s-259.5 -226.667 -433.5 -282s-355.667 -83 -545 -83c-240.667 0 -425.667 26.333 -555 79
s-240.666 120.667 -333.999 204c-116.667 105.333 -195.667 217 -237 335s-62 254.667 -62 410h372c0 -166 39.333 -300.5 118 -403.5s179 -176.167 301 -219.5s252.667 -65 392 -65c196 0 373.333 36 532 108s238 201.333 238 388c0 103.333 -18.5 185.666 -55.5 246.999
s-99.167 112.166 -186.5 152.499s-215.333 80.5 -384 120.5l-602 139c-418 97.333 -627 328 -627 692c0 160.667 36.167 310.167 108.5 448.5s184.666 249.833 336.999 334.5s341.166 127 566.499 127c312.667 0 553 -51.167 721 -153.5s278.833 -221 332.5 -356
s84.834 -277.833 93.5 -428.5z" />
    <glyph glyph-name="T" unicode="T" horiz-adv-x="2503" 
d="M57 2589v352h2388v-352h-995v-2589h-397v2589h-996z" />
    <glyph glyph-name="U" unicode="U" horiz-adv-x="2957" 
d="M2241 2941h397v-1909c0 -154.667 -24.167 -298.667 -72.5 -432s-121.5 -250.833 -219.5 -352.5s-222.333 -181.334 -373 -239.001s-323.667 -86.5 -519 -86.5c-251.333 0 -462 48.333 -632 145s-295.5 225 -376.5 385s-121.5 335.667 -121.5 527v1962h397v-1851
c0 -292 71.833 -501 215.5 -627s320.167 -189 529.5 -189c134 0 259.5 24.333 376.5 73s212.667 133.334 287 254.001s111.5 280.667 111.5 480v1860z" />
    <glyph glyph-name="V" unicode="V" horiz-adv-x="2732" 
d="M1372 434l832 2507h446l-1073 -2941h-422l-1073 2941h442l840 -2507h8z" />
    <glyph glyph-name="W" unicode="W" horiz-adv-x="3867" 
d="M1929 2437l-680 -2437h-418l-765 2941h430l548 -2392h9l659 2392h434l660 -2392h8l549 2392h438l-774 -2941h-418l-672 2437h-8z" />
    <glyph glyph-name="X" unicode="X" horiz-adv-x="2732" 
d="M1622 1507l1032 -1507h-491l-791 1208l-815 -1208h-479l1052 1507l-987 1434h500l746 -1126l745 1126h475z" />
    <glyph glyph-name="Y" unicode="Y" horiz-adv-x="2732" 
d="M1565 1184v-1184h-398v1184l-1110 1757h463l844 -1413l844 1413h467z" />
    <glyph glyph-name="Z" unicode="Z" horiz-adv-x="2503" 
d="M2408 352v-352h-2314v332l1802 2257h-1667v352h2179v-344l-1810 -2245h1810z" />
    <glyph glyph-name="bracketleft" unicode="[" horiz-adv-x="1139" 
d="M582 2666v-3178h442v-291h-766v3760h766v-291h-442z" />
    <glyph glyph-name="backslash" unicode="\" horiz-adv-x="1139" 
d="M934 -78l-1004 3097h271l1007 -3097h-274z" />
    <glyph glyph-name="bracketright" unicode="]" horiz-adv-x="1139" 
d="M557 -512v3178h-442v291h766v-3760h-766v291h442z" />
    <glyph glyph-name="asciicircum" unicode="^" horiz-adv-x="1921" 
d="M1978 1081h-315l-700 1409l-701 -1409h-319l872 1737h295z" />
    <glyph glyph-name="underscore" unicode="_" 
d="M2277 -512h-2277v205h2277v-205z" />
    <glyph glyph-name="grave" unicode="`" horiz-adv-x="1364" 
d="M590 2429l-533 577h443l364 -577h-274z" />
    <glyph glyph-name="a" unicode="a" 
d="M586 1491h-332.005c8 246.667 88.333 427.167 241 541.5s367.334 171.5 644.001 171.5c92 0 198.333 -14 319 -42s230 -86.667 328 -176s147 -216 147 -380v-1233c0 -84.667 39.667 -127 119 -127c24.667 0 64.334 5.33301 119 16v-262l-66 -20
c-17.333 -5.33301 -37.666 -10.166 -60.999 -14.499s-46.666 -6.5 -69.999 -6.5c-143.333 0 -240.5 29 -291.5 87s-80.833 138.333 -89.5 241c-92 -101.333 -197.5 -184.666 -316.5 -249.999s-271.5 -98 -457.5 -98c-130 0 -246 25.833 -348 77.5s-181.5 124.5 -238.5 218.5
s-85.5 201.333 -85.5 322c0 145.333 43.667 285.666 131 420.999s261 219 521 251l594 74c125.333 11.333 188 95.666 188 252.999c0 232.667 -168 349 -504 349c-179.333 0 -301.666 -39.5 -366.999 -118.5s-106.666 -177.5 -123.999 -295.5zM1573 741l-0.00195312 353
c-32 -25.333 -87.667 -47.666 -167 -66.999s-221.666 -42.333 -426.999 -69c-81.333 -11.333 -154.166 -27 -218.499 -47s-120.5 -54.5 -168.5 -103.5s-72 -114.833 -72 -197.5c0 -248 129.667 -372 389 -372c110.667 0 217.5 22.167 320.5 66.5s186 105.166 249 182.499
s94.5 162 94.5 254z" />
    <glyph glyph-name="b" unicode="b" 
d="M578 0h-340v2941h360v-1069h8c150.667 217.333 357 328 619 332c184.667 0 344.5 -46.5 479.5 -139.5s237.667 -221 308 -384s105.5 -344.833 105.5 -545.5c0 -193.333 -29.833 -380.5 -89.5 -561.5s-160 -332 -301 -453s-324.833 -181.5 -551.5 -181.5
c-259.333 0 -456 109 -590 327h-8v-266zM1745 1077c0 131.333 -11.833 254 -35.5 368s-78.834 215 -165.501 303s-215 132 -385 132c-384.667 0 -577 -303 -577 -909c0 -255.333 60.833 -439.333 182.5 -552s255.834 -169 402.501 -169c190 0 333.833 76.167 431.5 228.5
s146.5 351.833 146.5 598.5z" />
    <glyph glyph-name="c" unicode="c" horiz-adv-x="2048" 
d="M1954 1421h-348c-48 306 -217.333 459 -508 459c-205.333 0 -355 -79.333 -449 -238s-141 -348.334 -141 -569.001c0 -548.667 195.333 -823 586 -823c124 0 232.833 44.667 326.5 134s155.5 214 185.5 374h348c-22.667 -213.333 -103.334 -403.166 -242.001 -569.499
s-349 -249.5 -631 -249.5c-196.667 0 -367.167 45.833 -511.5 137.5s-254.833 218.667 -331.5 381s-115 347.166 -115 554.499c0 228 37.333 431.833 112 611.5s189 321.334 343 425.001s345 155.5 573 155.5c175.333 0 321.5 -37.333 438.5 -112
s204.333 -171.167 262 -289.5s91.834 -245.5 102.501 -381.5z" />
    <glyph glyph-name="d" unicode="d" 
d="M2044 2941v-2941h-340v295h-8c-127.333 -237.333 -331 -356 -611 -356c-226 0 -409.667 60.5 -551 181.5s-241.833 272 -301.5 453s-89.5 368.167 -89.5 561.5c0 200.667 35.167 382.5 105.5 545.5s173 291 308 384s294.833 139.5 479.5 139.5
c169.333 0 300.333 -35 393 -105s174.667 -156.667 246 -260l8 29v1073h361zM516 1077c0 -246.667 49.166 -446.167 147.499 -598.5s241.833 -228.5 430.5 -228.5c146.667 0 280.834 56.333 402.501 169s182.5 296.667 182.5 552c0 606 -192.333 909 -577 909
c-242.667 0 -401 -80 -475 -240s-111 -347.667 -111 -563z" />
    <glyph glyph-name="e" unicode="e" 
d="M1724 672l360.999 -0.000976562c-9.33301 -76.667 -45.666 -173.834 -108.999 -291.501s-154 -215.834 -272 -294.501c-145.333 -98 -339.333 -147 -582 -147c-196.667 0 -367.167 45.833 -511.5 137.5s-254.833 218.667 -331.5 381s-115 347.166 -115 554.499
c0 228 37.333 431.833 112 611.5s189 321.334 343 425.001s345 155.5 573 155.5c202 0 372 -50.833 510 -152.5s241.167 -246.667 309.5 -435s102.5 -409.166 102.5 -662.499h-1565c0 -226 52.667 -399.833 158 -521.5s260 -182.5 464 -182.5
c104.667 0 198.5 22.833 281.5 68.5s148 101.834 195 168.501s72.5 128.334 76.5 185.001zM548.999 1241h1192c-26.667 426 -226 639 -598 639c-107.333 0 -206.666 -29.833 -297.999 -89.5s-163.5 -138.667 -216.5 -237s-79.5 -202.5 -79.5 -312.5z" />
    <glyph glyph-name="f" unicode="f" horiz-adv-x="1139" 
d="M1073 1843h-359.999v-1843h-361v1843h-295v299h295v369c0 314 185.667 471 557 471c33.333 0 88 -2.66699 164 -8v-324c-60 5.33301 -109 8 -147 8c-76.667 0 -131.334 -19.667 -164.001 -59s-49 -103 -49 -191v-266h360v-299z" />
    <glyph glyph-name="g" unicode="g" 
d="M537 1077c0 -246.667 48.833 -446.168 146.5 -598.501s241.167 -228.5 430.5 -228.5c146.667 0 281 56.333 403 169s183 296.667 183 552c0 606 -192.667 909 -578 909c-170 0 -298.167 -43.833 -384.5 -131.5s-141.333 -188.667 -165 -303
s-35.5 -237.166 -35.5 -368.499zM2044 2142l0.00292969 -1966c0 -121.333 -7.5 -235.666 -22.5 -342.999s-53.167 -218 -114.5 -332s-161.833 -209.5 -301.5 -286.5s-325.167 -115.5 -556.5 -115.5c-186.667 0 -362.334 44.333 -527.001 133
s-262.334 257.334 -293.001 506.001h361c43.333 -226.667 204.333 -340 483 -340c141.333 0 254.5 24 339.5 72s146.333 109.167 184 183.5s61.5 151.333 71.5 231s15 168.834 15 267.501v90h-8v-17c-52.667 -84 -127.334 -152.667 -224.001 -206s-211.667 -80 -345 -80
c-226 0 -409.667 60.5 -551 181.5s-241.833 272 -301.5 453s-89.5 368.167 -89.5 561.5c0 200.667 35.167 382.5 105.5 545.5s173 291 308 384s294.833 139.5 479.5 139.5c169.333 0 300.333 -35 393 -105s174.667 -156.667 246 -260h8v303h340z" />
    <glyph glyph-name="h" unicode="h" 
d="M2011 1458l0.000976562 -1458h-360v1401c0 159.333 -30.5 279 -91.5 359s-172.5 120 -334.5 120c-168.667 0 -310.5 -56.5 -425.5 -169.5s-172.5 -294.167 -172.5 -543.5v-1167h-361v2941h361v-1086h8c174.667 232.667 383.667 349 627 349
c126 0 245.167 -21.5 357.5 -64.5s205.666 -119.833 279.999 -230.5s111.5 -261 111.5 -451z" />
    <glyph glyph-name="i" unicode="i" horiz-adv-x="909" 
d="M635 2142v-2142h-361v2142h361zM635 2531h-361v410h361v-410z" />
    <glyph glyph-name="j" unicode="j" horiz-adv-x="909" 
d="M635 2142l0.000976562 -2457c0 -148.667 -33.833 -276.667 -101.5 -384s-216.834 -161 -447.501 -161c-47.333 0 -98 4 -152 12v311h74c78 0 134.5 5.33301 169.5 16s59.833 34.5 74.5 71.5s22 95.5 22 175.5v2416h361zM635.001 2941v-410h-361v410h361z" />
    <glyph glyph-name="k" unicode="k" horiz-adv-x="2048" 
d="M1184 1343l868 -1343h-463l-667 1081l-299 -270v-811h-349v2941h349v-1704l921 905h459z" />
    <glyph glyph-name="l" unicode="l" horiz-adv-x="909" 
d="M635 2941v-2941h-361v2941h361z" />
    <glyph glyph-name="m" unicode="m" horiz-adv-x="3412" 
d="M266 0l0.00195312 2142h340v-303h8c165.333 243.333 381.333 365 648 365c166.667 0 290.167 -33.833 370.5 -101.5s146.5 -150.167 198.5 -247.5c75.333 84.667 139.833 149.834 193.5 195.501s117.667 82.667 192 111s164.166 42.5 269.5 42.5
c95.333 0 193.333 -20.333 294 -61s187.5 -114.834 260.5 -222.501s109.5 -253.5 109.5 -437.5v-1483h-361v1384c0 160.667 -29.833 283.5 -89.5 368.5s-162.167 127.5 -307.5 127.5c-144.667 0 -264.834 -58 -360.501 -174s-143.5 -249 -143.5 -399v-1307h-360v1483
c0 108.667 -25.833 202 -77.5 280s-137.834 117 -258.501 117c-82.667 0 -167 -21 -253 -63s-159.5 -116.333 -220.5 -223s-91.5 -249 -91.5 -427v-1167h-361z" />
    <glyph glyph-name="n" unicode="n" 
d="M2011 1458l0.00195312 -1458h-360v1319c0 194.667 -33.833 336.834 -101.5 426.501s-186.834 134.5 -357.501 134.5c-82.667 0 -167 -21 -253 -63s-159.5 -116.333 -220.5 -223s-91.5 -249 -91.5 -427v-1167h-361v2142h340v-303h8c165.333 243.333 381.333 365 648 365
c126 0 245.167 -21.5 357.5 -64.5s205.666 -119.833 279.999 -230.5s111.5 -261 111.5 -451z" />
    <glyph glyph-name="o" unicode="o" 
d="M143 1073c0 193.333 36.667 376.333 110 549s185.5 312.834 336.5 420.501s334.167 161.5 549.5 161.5s398.333 -53.833 549 -161.5s262.667 -247.834 336 -420.501s110 -355.667 110 -549s-36.667 -376.166 -110 -548.499s-185.333 -312.333 -336 -420
s-333.667 -161.5 -549 -161.5s-398.5 53.833 -549.5 161.5s-263.167 247.667 -336.5 420s-110 355.166 -110 548.499zM516 1073c0 -117.333 17.833 -238.168 53.5 -362.501s100 -231.5 193 -321.5s218.5 -135 376.5 -135c156.667 0 281.667 44.667 375 134
s157.833 196.5 193.5 321.5s53.5 246.167 53.5 363.5s-17.833 238.5 -53.5 363.5s-100.167 232.167 -193.5 321.5s-218.333 134 -375 134c-158 0 -283.5 -45 -376.5 -135s-157.333 -197.167 -193 -321.5s-53.5 -245.166 -53.5 -362.499z" />
    <glyph glyph-name="p" unicode="p" 
d="M582 971c0 -255.333 60.833 -439.333 182.5 -552s255.834 -169 402.501 -169c190 0 333.833 76.167 431.5 228.5s146.5 351.833 146.5 598.5c0 131.333 -11.833 254 -35.5 368s-78.834 215 -165.501 303s-215 132 -385 132c-384.667 0 -577 -303 -577 -909zM238 -848
l-0.000976562 2990h340v-303h8c70.667 102 152.5 188.333 245.5 259s224.167 106 393.5 106c184.667 0 344.5 -46.5 479.5 -139.5s237.667 -221 308 -384s105.5 -344.833 105.5 -545.5c0 -193.333 -29.833 -380.5 -89.5 -561.5s-160 -332 -301 -453
s-324.833 -181.5 -551.5 -181.5c-133.333 0 -248.666 26.833 -345.999 80.5s-172 122.167 -224 205.5h-8v-1073h-360z" />
    <glyph glyph-name="q" unicode="q" 
d="M2023 2142l0.000976562 -2990h-360v1073h-8c-52 -83.333 -126.333 -151.833 -223 -205.5s-212.334 -80.5 -347.001 -80.5c-226 0 -409.667 60.5 -551 181.5s-241.833 272 -301.5 453s-89.5 368.167 -89.5 561.5c0 200.667 35.167 382.5 105.5 545.5s173 291 308 384
s294.833 139.5 479.5 139.5c169.333 0 300.333 -35 393 -105s174.667 -156.667 246 -260h8v303h340zM1679 971c0 606 -192.334 909 -577.001 909c-242.667 0 -401 -80 -475 -240s-111 -347.667 -111 -563c0 -246.667 49.167 -446.167 147.5 -598.5
s241.833 -228.5 430.5 -228.5c146.667 0 280.834 56.333 402.501 169s182.5 296.667 182.5 552z" />
    <glyph glyph-name="r" unicode="r" horiz-adv-x="1364" 
d="M676 1245l0.000976562 -1245h-361v2142h340v-356h9c159.333 278.667 360 418 602 418c34.667 0 66 -4.33301 94 -13v-372h-135c-162.667 0 -294.834 -55.667 -396.501 -167s-152.5 -247 -152.5 -407z" />
    <glyph glyph-name="s" unicode="s" horiz-adv-x="2048" 
d="M1831 1532l-348.005 -0.00292969c-7.33301 240 -176.666 360 -507.999 360c-95.333 0 -190.166 -21.667 -284.499 -65s-141.5 -122.666 -141.5 -237.999c0 -57.333 12.833 -102.666 38.5 -135.999s64.667 -60.333 117 -81s130.166 -43.667 233.499 -69l360 -91
c220.667 -54 376.334 -124.667 467.001 -212s136 -205 136 -353c0 -144 -36.667 -269.5 -110 -376.5s-174.166 -189 -302.499 -246s-273.5 -85.5 -435.5 -85.5c-257.333 0 -453.666 40.667 -588.999 122s-223.166 175.333 -263.499 282s-63.5 221.667 -69.5 345h348
c10 -123.333 52 -227.166 126 -311.499s222 -126.5 444 -126.5c139.333 0 256 28.5 350 85.5s141 141.833 141 254.5c0 57.333 -13.833 103.5 -41.5 138.5s-70.5 64.667 -128.5 89s-143.333 50.833 -256 79.5l-418 102c-330 82 -495 255.667 -495 521
c0 150 37 276.5 111 379.5s172.333 179.5 295 229.5s257.667 75 405 75c230 0 405.667 -43.833 527 -131.5s200.333 -182.167 237 -283.5s55 -187 55 -257z" />
    <glyph glyph-name="t" unicode="t" horiz-adv-x="1139" 
d="M1053 1843l-344 0.00195312v-1392c0 -72.667 21 -118.834 63 -138.501s93.333 -29.5 154 -29.5h127v-283c-53.333 -4.66699 -108 -10.667 -164 -18s-91.667 -11 -107 -11c-164.667 0 -278.167 40.167 -340.5 120.5s-93.5 193.166 -93.5 338.499v1413h-291v299h291v598
h361v-598h344v-299z" />
    <glyph glyph-name="u" unicode="u" 
d="M2003 0l-340 0.000976562v311l-8 8c-80 -130 -172 -225.833 -276 -287.5s-238.667 -92.5 -404 -92.5c-188 0 -351 52.167 -489 156.5s-207 273.166 -207 506.499v1540h360v-1421c0 -314 138 -471 414 -471c141.333 0 256 35.667 344 107s150.833 161.333 188.5 270
s56.5 220.667 56.5 336v1179h361v-2142z" />
    <glyph glyph-name="v" unicode="v" horiz-adv-x="2048" 
d="M1016 397l606 1745h393l-815 -2142h-385l-782 2142h418l557 -1745h8z" />
    <glyph glyph-name="w" unicode="w" horiz-adv-x="2957" 
d="M1466 1659l-417 -1659h-373l-619 2142h394l409 -1683h8l414 1683h401l418 -1683h8l435 1683h360l-623 -2142h-372l-434 1659h-9z" />
    <glyph glyph-name="x" unicode="x" horiz-adv-x="2048" 
d="M1253 1102l754 -1102h-459l-532 807l-516 -807h-455l754 1102l-717 1040h463l495 -753l496 753h442z" />
    <glyph glyph-name="y" unicode="y" horiz-adv-x="2048" 
d="M1032 397l574.001 1745h397l-176 -493.5l-172.5 -481.5l-221.5 -601l-200 -525c-96 -246 -169.5 -424 -220.5 -534s-102.167 -193.333 -153.5 -250s-109.666 -93.167 -174.999 -109.5s-162.333 -24.5 -291 -24.5c-22 0 -72.333 11 -151 33v328
c69.333 -24.667 141.666 -37 216.999 -37c64 0 112.667 10.5 146 31.5s65.166 63.167 95.499 126.5s76.833 176 139.5 338l-795 2199h410l569 -1745h8z" />
    <glyph glyph-name="z" unicode="z" horiz-adv-x="2048" 
d="M1884 1847l-1278 -1548h1315v-299h-1794v283l1290 1560h-1192v299h1659v-295z" />
    <glyph glyph-name="braceleft" unicode="{" horiz-adv-x="1368" 
d="M172 958v245.998c94.667 0 173.667 49.667 237 149s95 223 95 371v705c0 106.667 19.833 200.334 59.5 281.001s91.5 142 155.5 184s131.667 63 203 63h274v-266h-180c-126 0 -189 -112 -189 -336v-696c-7.33301 -121.333 -33.166 -223.666 -77.499 -306.999
s-93.166 -146.333 -146.499 -189s-98.666 -68.667 -135.999 -78v-8c39.333 -12 85.166 -38.167 137.499 -78.5s100.666 -102.5 144.999 -186.5s70.166 -190.667 77.499 -320v-693c0 -224 63 -336 189 -336h180v-266h-274c-111.333 0 -208.833 48.167 -292.5 144.5
s-125.5 224.5 -125.5 384.5v700c0 153.333 -31.667 280.333 -95 381s-142.333 151 -237 151z" />
    <glyph glyph-name="bar" unicode="|" horiz-adv-x="1065" 
d="M385 -78v3097h299v-3097h-299z" />
    <glyph glyph-name="braceright" unicode="}" horiz-adv-x="1368" 
d="M1196 1204l0.000976562 -246c-61.333 0 -117.5 -23 -168.5 -69s-91 -109.667 -120 -191s-43.5 -172 -43.5 -272v-700c0 -160 -41.833 -288.167 -125.5 -384.5s-181.167 -144.5 -292.5 -144.5h-274v266h180c126 0 189 112 189 336v693c10 182.667 54.667 320.667 134 414
s154.666 150.333 225.999 171v8c-68 18 -142.5 75 -223.5 171s-126.5 230.333 -136.5 403v696c0 224 -63 336 -189 336h-180v266h274c111.333 0 208.833 -47.833 292.5 -143.5s125.5 -223.834 125.5 -384.5v-705c0 -148.667 31.667 -272.5 95 -371.5
s142.333 -148.5 237 -148.5z" />
    <glyph glyph-name="asciitilde" unicode="~" horiz-adv-x="2392" 
d="M1995 1335l146.999 -229c-146.667 -234.667 -317.334 -352 -512.001 -352c-113.333 0 -252.666 45 -417.999 135c-168.667 95.333 -325.667 143 -471 143c-139.333 0 -254 -98.333 -344 -295l-147 230c122.667 234.667 293.334 352 512.001 352
c106 0 257.667 -43.667 455 -131c214 -98.667 353 -148 417 -148c73.333 0 135.833 25 187.5 75s109.5 123.333 173.5 220z" />
    <glyph glyph-name="sterling" unicode="&#xa3;" horiz-adv-x="2048" 
d="M70 946h372v-205c0 -169.333 38 -291.5 114 -366.5s185.667 -112.5 329 -112.5c314 0 471 169.333 471 508v2171h397v-2146c0 -214 -40.667 -386.333 -122 -517s-185.5 -222.667 -312.5 -276s-264.833 -80 -413.5 -80c-208.667 0 -375.667 39 -501 117
s-212.333 173 -261 285s-73 222.333 -73 331v291z" />
    <glyph glyph-name="sterling" unicode="&#x408;" horiz-adv-x="2048" 
d="M70 946h372v-205c0 -169.333 38 -291.5 114 -366.5s185.667 -112.5 329 -112.5c314 0 471 169.333 471 508v2171h397v-2146c0 -214 -40.667 -386.333 -122 -517s-185.5 -222.667 -312.5 -276s-264.833 -80 -413.5 -80c-208.667 0 -375.667 39 -501 117
s-212.333 173 -261 285s-73 222.333 -73 331v291z" />
    <glyph glyph-name="section" unicode="&#xa4;" 
d="M1966 2470l197.001 -197l-226 -221c67.333 -77.333 118.333 -169.5 153 -276.5s52 -219.5 52 -337.5c0 -244.667 -68.333 -451 -205 -619l222 -229l-185 -184l-225 237c-162.667 -150 -366 -225 -610 -225c-244.667 0 -448.334 75 -611.001 225l-225 -237l-184 184
l221 229c-136.667 169.333 -205 375.666 -205 618.999c0 114.667 17.167 225.834 51.5 333.501s85.5 201.167 153.5 280.5l-225 221l196 197l234 -229c159.333 138.667 357.333 208 594 208c236 0 434 -69.333 594 -208zM434.001 1438
c0 -130.667 31.498 -252.167 94.498 -364.5s148.5 -201.833 256.5 -268.5s226 -100 354 -100c128.667 0 246.834 33.5 354.501 100.5s192.834 156.667 255.501 269s94 233.5 94 363.5c0 126 -31.5 244.833 -94.5 356.5s-148.5 201 -256.5 268s-225.667 100.5 -353 100.5
s-245 -33.5 -353 -100.5s-193.667 -156.167 -257 -267.5s-95 -230.333 -95 -357z" />
    <glyph glyph-name="paragraph" unicode="&#xa6;" horiz-adv-x="1065" 
d="M385 -78v1204h299v-1204h-299zM385 1884v1135h299v-1135h-299z" />
    <glyph glyph-name="germandbls" unicode="&#xa7;" 
d="M1884 2269l-347.998 0.00195312c-7.33301 117.333 -35.833 219.666 -85.5 306.999s-156.5 131 -320.5 131c-95.333 0 -181.833 -27.333 -259.5 -82s-116.5 -137.667 -116.5 -249c0 -70.667 24.667 -134.5 74 -191.5s124.333 -116.167 225 -177.5l598 -352
c144.667 -86 255.167 -178.333 331.5 -277s114.5 -225 114.5 -379c0 -156 -38 -283.833 -114 -383.5s-178.667 -190.167 -308 -271.5c70.667 -74 123.834 -146.167 159.501 -216.5s53.5 -153.833 53.5 -250.5c0 -134 -36.333 -251 -109 -351
s-166.334 -176.333 -281.001 -229s-231.667 -79 -351 -79c-158 0 -297.667 27 -419 81s-216.333 138.5 -285 253.5s-103 260.167 -103 435.5h360c0 -112.667 26.333 -217.334 79 -314.001s159 -145 319 -145c108.667 0 207.5 24.5 296.5 73.5s133.5 137.833 133.5 266.5
c0 116.667 -75 224.667 -225 324l-861 573c-98.667 66 -167.667 145.167 -207 237.5s-59 179.833 -59 262.5c0 161.333 34.833 290 104.5 386s171.5 183 305.5 261c-72 78 -122.167 146 -150.5 204s-42.5 126.333 -42.5 205c0 110.667 25.5 219.334 76.5 326
c51 106.667 132 195.167 243 265.5s250.167 105.5 417.5 105.5c125.333 0 244.666 -22.167 357.999 -66.5s207.666 -122.5 282.999 -234.5s113 -261.667 113 -449zM1503 1315l-711.999 437.999c-183.333 -94 -275 -226.333 -275 -397c0 -158 61.333 -274 184 -348l775 -500
c93.333 60.667 163.666 121.334 210.999 182.001s71 138 71 232c0 157.333 -84.667 288.333 -254 393z" />
    <glyph glyph-name="registered" unicode="&#xa8;" horiz-adv-x="2732" 
d="M2482 0h-2171v2941h2143v-352h-1745v-901h1609v-353h-1609v-983h1773v-352zM1262 3273h-373v417h373v-417zM1925 3273h-373v417h373v-417z" />
    <glyph glyph-name="registered" unicode="&#x401;" horiz-adv-x="2732" 
d="M2482 0h-2171v2941h2143v-352h-1745v-901h1609v-353h-1609v-983h1773v-352zM1262 3273h-373v417h373v-417zM1925 3273h-373v417h373v-417z" />
    <glyph glyph-name="copyright" unicode="&#xa9;" horiz-adv-x="3019" 
d="M1516 -78c-211.333 0 -412.003 38.334 -602.003 115.001s-358.333 185.5 -505 326.5s-261 306.667 -343 497s-123 395.166 -123 614.499c0 288.667 71.167 551.167 213.5 787.5s334.333 421.5 576 555.5s502.834 201 783.501 201c208 0 407.5 -38.667 598.5 -116
s358.833 -185.666 503.5 -325c144.667 -139.333 257.834 -303.5 339.501 -492.5s122.5 -392.5 122.5 -610.5c0 -219.333 -40.667 -424 -122 -614s-195 -355.667 -341 -497s-313.667 -250.333 -503 -327s-388.666 -115 -597.999 -115zM253.997 1475
c0 -243.333 55.5 -464.001 166.5 -662.001s263.167 -353 456.5 -465s406.333 -168 639 -168c230 0 441 56 633 168s343.333 267 454 465s166 418.667 166 662c0 182 -31.833 351.167 -95.5 507.5s-153 293 -268 410s-248.5 207.667 -400.5 272s-315 96.5 -489 96.5
c-175.333 0 -339.5 -32 -492.5 -96s-287.667 -154.833 -404 -272.5s-206.333 -255.167 -270 -412.5s-95.5 -325.666 -95.5 -504.999zM2052 1184l278.999 -0.00195312c-26 -134 -75.167 -250.833 -147.5 -350.5s-161.666 -176.167 -267.999 -229.5s-221.833 -80 -346.5 -80
c-180.667 0 -340.5 41.833 -479.5 125.5s-246.167 198.334 -321.5 344.001s-113 307.5 -113 485.5c0 182.667 36.167 345.334 108.5 488.001s176.5 254.667 312.5 336s294.667 122 476 122c132 0 253.667 -25 365 -75s203 -123.667 275 -221s117 -213 135 -347h-275
c-16 73.333 -47 138.5 -93 195.5s-103.333 100.667 -172 131s-145.667 45.5 -231 45.5c-124.667 0 -231.5 -29 -320.5 -87s-156 -137.333 -201 -238s-67.5 -216 -67.5 -346c0 -124.667 24.5 -239.5 73.5 -344.5s119.167 -188.5 210.5 -250.5s197.333 -93 318 -93
c128 0 236 36 324 108s141 165.667 159 281z" />
    <glyph glyph-name="acute" unicode="&#xab;" 
d="M1040 803v-361l-643 504v377l643 504v-361l-430 -331zM1880 803v-361l-643 504v377l643 504v-361l-430 -331z" />
    <glyph glyph-name="dieresis" unicode="&#xac;" horiz-adv-x="2392" 
d="M1933 442v856h-1773v299h2072v-1155h-299z" />
    <glyph glyph-name="notequal" unicode="&#xad;" horiz-adv-x="1364" 
d="M1323 2802v-234h-1282v234h1282z" />
    <glyph glyph-name="AE" unicode="&#xae;" horiz-adv-x="3019" 
d="M1516 -78c-211.333 0 -412.003 38.334 -602.003 115.001s-358.333 185.5 -505 326.5s-261 306.667 -343 497s-123 395.166 -123 614.499c0 288.667 71.167 551.167 213.5 787.5s334.333 421.5 576 555.5s502.834 201 783.501 201c208 0 407.5 -38.667 598.5 -116
s358.833 -185.666 503.5 -325c144.667 -139.333 257.834 -303.5 339.501 -492.5s122.5 -392.5 122.5 -610.5c0 -219.333 -40.667 -424 -122 -614s-195 -355.667 -341 -497s-313.667 -250.333 -503 -327s-388.666 -115 -597.999 -115zM253.997 1475
c0 -243.333 55.5 -464.001 166.5 -662.001s263.167 -353 456.5 -465s406.333 -168 639 -168c230 0 441 56 633 168s343.333 267 454 465s166 418.667 166 662c0 182 -31.833 351.167 -95.5 507.5s-153 293 -268 410s-248.5 207.667 -400.5 272s-315 96.5 -489 96.5
c-175.333 0 -339.5 -32 -492.5 -96s-287.667 -154.833 -404 -272.5s-206.333 -255.167 -270 -412.5s-95.5 -325.666 -95.5 -504.999zM1188 1352v-773.999h-270v1785h679c213.333 0 371.833 -40.833 475.5 -122.5s155.5 -210.167 155.5 -385.5
c0 -288.667 -154.333 -452.334 -463 -491.001l508 -786h-303l-471 774h-311zM1188 1581l322.999 -0.000976562c92.667 0 169.334 5.83301 230.001 17.5s110 38.834 148 81.501s57 106.667 57 192c0 174.667 -130 262 -390 262h-368v-553z" />
    <glyph glyph-name="Oslash" unicode="&#xaf;" horiz-adv-x="1139" 
d="M770 2941v-2941h-397v2941h397zM426 3690v-417h-373v417h373zM1090 3690v-417h-373v417h373z" />
    <glyph glyph-name="Oslash" unicode="&#x407;" horiz-adv-x="1139" 
d="M770 2941v-2941h-397v2941h397zM426 3690v-417h-373v417h373zM1090 3690v-417h-373v417h373z" />
    <glyph glyph-name="infinity" unicode="&#xb0;" horiz-adv-x="1638" 
d="M819 2703c-107.333 0 -201.001 -42.667 -281.001 -128s-120 -183.333 -120 -294c0 -110 40 -207.667 120 -293s173.667 -128 281 -128c71.333 0 137.833 20 199.5 60s110.834 92 147.501 156s55 132.333 55 205c0 72 -18.333 140.333 -55 205s-85.667 117 -147 157
s-128 60 -200 60zM1417 2281c0 -170 -57.167 -312.168 -171.5 -426.501s-256.5 -171.5 -426.5 -171.5c-169.333 0 -311.333 57.333 -426 172s-172 256.667 -172 426.001c0 170 57.167 312.167 171.5 426.5s256.5 171.5 426.5 171.5c112.667 0 214.5 -26 305.5 -78
s162.5 -123.5 214.5 -214.5s78 -192.833 78 -305.5z" />
    <glyph glyph-name="plusminus" unicode="&#xb1;" horiz-adv-x="2392" 
d="M1049 1413v660h299v-660h884v-299h-884v-659h-299v659h-889v299h889zM160 0v299h2072v-299h-2072z" />
    <glyph glyph-name="lessequal" unicode="&#xb2;" horiz-adv-x="1139" 
d="M770 2941v-2941h-397v2941h397z" />
    <glyph glyph-name="lessequal" unicode="&#x406;" horiz-adv-x="1139" 
d="M770 2941v-2941h-397v2941h397z" />
    <glyph glyph-name="greaterequal" unicode="&#xb3;" horiz-adv-x="909" 
d="M635 2142v-2142h-361v2142h361zM635 2531h-361v410h361v-410z" />
    <glyph glyph-name="greaterequal" unicode="&#x456;" horiz-adv-x="909" 
d="M635 2142v-2142h-361v2142h361zM635 2531h-361v410h361v-410z" />
    <glyph glyph-name="mu" unicode="&#xb5;" 
d="M2003 0h-340v311l-8 8c-80 -130 -172 -225.833 -276 -287.5s-238.667 -92.5 -404 -92.5c-148 0 -257.333 46.333 -328 139h-8v-926h-360v1450v1540h360v-1421c0 -314 138 -471 414 -471c141.333 0 256 35.667 344 107s150.833 161.333 188.5 270s56.5 220.667 56.5 336
v1179h361v-2142z" />
    <glyph glyph-name="partialdiff" unicode="&#xb6;" horiz-adv-x="2200" 
d="M950 -709l-0.000976562 2118c-170.667 0 -322.667 33 -456 99s-236.666 156.667 -309.999 272s-110 243 -110 383c0 262 83.333 457.167 250 585.5s398.667 192.5 696 192.5h1016v-3650h-299v3404h-488v-3404h-299z" />
    <glyph glyph-name="product" unicode="&#xb8;" 
d="M995 2474h-372v418h372v-418zM1659 2474h-373v418h373v-418zM2085 672c-9.33301 -76.667 -45.667 -173.835 -109 -291.502s-154 -215.834 -272 -294.501c-145.333 -98 -339.333 -147 -582 -147c-196.667 0 -367.167 45.833 -511.5 137.5s-254.833 218.667 -331.5 381
s-115 347.166 -115 554.499c0 228 37.333 431.833 112 611.5s189 321.334 343 425.001s345 155.5 573 155.5c202 0 372 -50.833 510 -152.5s241.167 -246.667 309.5 -435s102.5 -409.166 102.5 -662.499h-1565c0 -226 52.667 -399.833 158 -521.5s260 -182.5 464 -182.5
c104.667 0 198.5 22.833 281.5 68.5s148 101.834 195 168.501s72.5 128.334 76.5 185.001h361zM1741 1241c-26.667 426 -226.001 639 -598.001 639c-107.333 0 -206.666 -29.833 -297.999 -89.5s-163.5 -138.667 -216.5 -237s-79.5 -202.5 -79.5 -312.5h1192z" />
    <glyph glyph-name="product" unicode="&#x451;" 
d="M995 2474h-372v418h372v-418zM1659 2474h-373v418h373v-418zM2085 672c-9.33301 -76.667 -45.667 -173.835 -109 -291.502s-154 -215.834 -272 -294.501c-145.333 -98 -339.333 -147 -582 -147c-196.667 0 -367.167 45.833 -511.5 137.5s-254.833 218.667 -331.5 381
s-115 347.166 -115 554.499c0 228 37.333 431.833 112 611.5s189 321.334 343 425.001s345 155.5 573 155.5c202 0 372 -50.833 510 -152.5s241.167 -246.667 309.5 -435s102.5 -409.166 102.5 -662.499h-1565c0 -226 52.667 -399.833 158 -521.5s260 -182.5 464 -182.5
c104.667 0 198.5 22.833 281.5 68.5s148 101.834 195 168.501s72.5 128.334 76.5 185.001h361zM1741 1241c-26.667 426 -226.001 639 -598.001 639c-107.333 0 -206.666 -29.833 -297.999 -89.5s-163.5 -138.667 -216.5 -237s-79.5 -202.5 -79.5 -312.5h1192z" />
    <glyph glyph-name="pi" unicode="&#xb9;" horiz-adv-x="1495" 
d="M1397 2339c0 -242.667 -63.167 -416.666 -189.5 -521.999s-278.833 -158 -457.5 -158c-179.333 0 -332.166 52.667 -458.499 158s-189.5 279.333 -189.5 521.999c0 242.667 63.167 416.667 189.5 522s279.166 158 458.499 158c178.667 0 331.167 -52.667 457.5 -158
s189.5 -279.333 189.5 -522zM1122 2339c0 119.333 -26.3311 227.001 -78.998 323.001s-150.334 144 -293.001 144s-240.5 -48 -293.5 -144s-79.5 -203.667 -79.5 -323s26.667 -227 80 -323s151 -144 293 -144c98.667 0 175.667 25.167 231 75.5
s92.666 110.166 111.999 179.499s29 140 29 212zM143.002 1442h1213v-197h-1213v197z" />
    <glyph glyph-name="pi" unicode="&#x2116;" horiz-adv-x="1495" 
d="M1397 2339c0 -242.667 -63.167 -416.666 -189.5 -521.999s-278.833 -158 -457.5 -158c-179.333 0 -332.166 52.667 -458.499 158s-189.5 279.333 -189.5 521.999c0 242.667 63.167 416.667 189.5 522s279.166 158 458.499 158c178.667 0 331.167 -52.667 457.5 -158
s189.5 -279.333 189.5 -522zM1122 2339c0 119.333 -26.3311 227.001 -78.998 323.001s-150.334 144 -293.001 144s-240.5 -48 -293.5 -144s-79.5 -203.667 -79.5 -323s26.667 -227 80 -323s151 -144 293 -144c98.667 0 175.667 25.167 231 75.5
s92.666 110.166 111.999 179.499s29 140 29 212zM143.002 1442h1213v-197h-1213v197z" />
    <glyph glyph-name="ordfeminine" unicode="&#xbb;" 
d="M1040 946l-643 -504v361l430 332l-430 331v361l643 -504v-377zM1880 946l-643 -504v361l430 332l-430 331v361l643 -504v-377z" />
    <glyph glyph-name="ordmasculine" unicode="&#xbc;" horiz-adv-x="909" 
d="M635 2142l0.000976562 -2457c0 -148.667 -33.833 -276.667 -101.5 -384s-216.834 -161 -447.501 -161c-47.333 0 -98 4 -152 12v311h74c78 0 134.5 5.33301 169.5 16s59.833 34.5 74.5 71.5s22 95.5 22 175.5v2416h361zM635.001 2941v-410h-361v410h361z" />
    <glyph glyph-name="ordmasculine" unicode="&#x458;" horiz-adv-x="909" 
d="M635 2142l0.000976562 -2457c0 -148.667 -33.833 -276.667 -101.5 -384s-216.834 -161 -447.501 -161c-47.333 0 -98 4 -152 12v311h74c78 0 134.5 5.33301 169.5 16s59.833 34.5 74.5 71.5s22 95.5 22 175.5v2416h361zM635.001 2941v-410h-361v410h361z" />
    <glyph glyph-name="Omega" unicode="&#xbd;" horiz-adv-x="2732" 
d="M2458 2081l-372.999 0.00390625c-6.66699 142 -45.667 257.833 -117 347.5s-161.166 153.834 -269.499 192.5c-108.333 38.667 -222.5 58 -342.5 58c-103.333 0 -205.333 -13.5 -306 -40.5s-186.834 -78.833 -258.501 -155.5s-107.5 -183.334 -107.5 -320.001
c0 -113.333 31.5 -197.333 94.5 -252s147.5 -95 253.5 -121l840 -193c445.333 -105.333 668 -367.333 668 -786c0 -216.667 -57.5 -391.334 -172.5 -524.001s-259.5 -226.667 -433.5 -282s-355.667 -83 -545 -83c-240.667 0 -425.667 26.333 -555 79
s-240.666 120.667 -333.999 204c-116.667 105.333 -195.667 217 -237 335s-62 254.667 -62 410h372c0 -166 39.333 -300.5 118 -403.5s179 -176.167 301 -219.5s252.667 -65 392 -65c196 0 373.333 36 532 108s238 201.333 238 388c0 103.333 -18.5 185.666 -55.5 246.999
s-99.167 112.166 -186.5 152.499s-215.333 80.5 -384 120.5l-602 139c-418 97.333 -627 328 -627 692c0 160.667 36.167 310.167 108.5 448.5s184.666 249.833 336.999 334.5s341.166 127 566.499 127c312.667 0 553 -51.167 721 -153.5s278.833 -221 332.5 -356
s84.834 -277.833 93.5 -428.5z" />
    <glyph glyph-name="Omega" unicode="&#x405;" horiz-adv-x="2732" 
d="M2458 2081l-372.999 0.00390625c-6.66699 142 -45.667 257.833 -117 347.5s-161.166 153.834 -269.499 192.5c-108.333 38.667 -222.5 58 -342.5 58c-103.333 0 -205.333 -13.5 -306 -40.5s-186.834 -78.833 -258.501 -155.5s-107.5 -183.334 -107.5 -320.001
c0 -113.333 31.5 -197.333 94.5 -252s147.5 -95 253.5 -121l840 -193c445.333 -105.333 668 -367.333 668 -786c0 -216.667 -57.5 -391.334 -172.5 -524.001s-259.5 -226.667 -433.5 -282s-355.667 -83 -545 -83c-240.667 0 -425.667 26.333 -555 79
s-240.666 120.667 -333.999 204c-116.667 105.333 -195.667 217 -237 335s-62 254.667 -62 410h372c0 -166 39.333 -300.5 118 -403.5s179 -176.167 301 -219.5s252.667 -65 392 -65c196 0 373.333 36 532 108s238 201.333 238 388c0 103.333 -18.5 185.666 -55.5 246.999
s-99.167 112.166 -186.5 152.499s-215.333 80.5 -384 120.5l-602 139c-418 97.333 -627 328 -627 692c0 160.667 36.167 310.167 108.5 448.5s184.666 249.833 336.999 334.5s341.166 127 566.499 127c312.667 0 553 -51.167 721 -153.5s278.833 -221 332.5 -356
s84.834 -277.833 93.5 -428.5z" />
    <glyph glyph-name="ae" unicode="&#xbe;" horiz-adv-x="2048" 
d="M1831 1532l-348.005 -0.00292969c-7.33301 240 -176.666 360 -507.999 360c-95.333 0 -190.166 -21.667 -284.499 -65s-141.5 -122.666 -141.5 -237.999c0 -57.333 12.833 -102.666 38.5 -135.999s64.667 -60.333 117 -81s130.166 -43.667 233.499 -69l360 -91
c220.667 -54 376.334 -124.667 467.001 -212s136 -205 136 -353c0 -144 -36.667 -269.5 -110 -376.5s-174.166 -189 -302.499 -246s-273.5 -85.5 -435.5 -85.5c-257.333 0 -453.666 40.667 -588.999 122s-223.166 175.333 -263.499 282s-63.5 221.667 -69.5 345h348
c10 -123.333 52 -227.166 126 -311.499s222 -126.5 444 -126.5c139.333 0 256 28.5 350 85.5s141 141.833 141 254.5c0 57.333 -13.833 103.5 -41.5 138.5s-70.5 64.667 -128.5 89s-143.333 50.833 -256 79.5l-418 102c-330 82 -495 255.667 -495 521
c0 150 37 276.5 111 379.5s172.333 179.5 295 229.5s257.667 75 405 75c230 0 405.667 -43.833 527 -131.5s200.333 -182.167 237 -283.5s55 -187 55 -257z" />
    <glyph glyph-name="ae" unicode="&#x455;" horiz-adv-x="2048" 
d="M1831 1532l-348.005 -0.00292969c-7.33301 240 -176.666 360 -507.999 360c-95.333 0 -190.166 -21.667 -284.499 -65s-141.5 -122.666 -141.5 -237.999c0 -57.333 12.833 -102.666 38.5 -135.999s64.667 -60.333 117 -81s130.166 -43.667 233.499 -69l360 -91
c220.667 -54 376.334 -124.667 467.001 -212s136 -205 136 -353c0 -144 -36.667 -269.5 -110 -376.5s-174.166 -189 -302.499 -246s-273.5 -85.5 -435.5 -85.5c-257.333 0 -453.666 40.667 -588.999 122s-223.166 175.333 -263.499 282s-63.5 221.667 -69.5 345h348
c10 -123.333 52 -227.166 126 -311.499s222 -126.5 444 -126.5c139.333 0 256 28.5 350 85.5s141 141.833 141 254.5c0 57.333 -13.833 103.5 -41.5 138.5s-70.5 64.667 -128.5 89s-143.333 50.833 -256 79.5l-418 102c-330 82 -495 255.667 -495 521
c0 150 37 276.5 111 379.5s172.333 179.5 295 229.5s257.667 75 405 75c230 0 405.667 -43.833 527 -131.5s200.333 -182.167 237 -283.5s55 -187 55 -257z" />
    <glyph glyph-name="oslash" unicode="&#xbf;" horiz-adv-x="1139" 
d="M750 2142v-2142h-361v2142h361zM426 2892v-418h-373v418h373zM1090 2892v-418h-373v418h373z" />
    <glyph glyph-name="oslash" unicode="&#x457;" horiz-adv-x="1139" 
d="M750 2142v-2142h-361v2142h361zM426 2892v-418h-373v418h373zM1090 2892v-418h-373v418h373z" />
    <glyph glyph-name="questiondown" unicode="&#xc0;" horiz-adv-x="2732" 
d="M770 856l-307 -856h-410l1106 2941h451l1065 -2941h-434l-291 856h-1180zM1806 1208l-434 1295h-8l-471 -1295h913z" />
    <glyph glyph-name="questiondown" unicode="&#x410;" horiz-adv-x="2732" 
d="M770 856l-307 -856h-410l1106 2941h451l1065 -2941h-434l-291 856h-1180zM1806 1208l-434 1295h-8l-471 -1295h913z" />
    <glyph glyph-name="exclamdown" unicode="&#xc1;" horiz-adv-x="2732" 
d="M709 2589v-889h970c154 0 288.333 -23.667 403 -71s208.167 -112 280.5 -194s125.333 -174.167 159 -276.5s50.5 -209.833 50.5 -322.5c0 -154 -41.667 -295 -125 -423s-194 -228.833 -332 -302.5s-283.333 -110.5 -436 -110.5h-1368v2941h2073v-352h-1675zM709 340
h871.999c176.667 0 317.834 40.167 423.501 120.5s158.5 206.833 158.5 379.5c0 192 -51.5 326.667 -154.5 404s-250.833 116 -443.5 116h-856v-1020z" />
    <glyph glyph-name="exclamdown" unicode="&#x411;" horiz-adv-x="2732" 
d="M709 2589v-889h970c154 0 288.333 -23.667 403 -71s208.167 -112 280.5 -194s125.333 -174.167 159 -276.5s50.5 -209.833 50.5 -322.5c0 -154 -41.667 -295 -125 -423s-194 -228.833 -332 -302.5s-283.333 -110.5 -436 -110.5h-1368v2941h2073v-352h-1675zM709 340
h871.999c176.667 0 317.834 40.167 423.501 120.5s158.5 206.833 158.5 379.5c0 192 -51.5 326.667 -154.5 404s-250.833 116 -443.5 116h-856v-1020z" />
    <glyph glyph-name="logicalnot" unicode="&#xc2;" horiz-adv-x="2732" 
d="M311 2941l1295 0.000976562c176.667 0 327.5 -33.167 452.5 -99.5s219.333 -155.5 283 -267.5s95.5 -236.667 95.5 -374c0 -286.667 -131 -491.667 -393 -615c154 -62.667 281.167 -143 381.5 -241s150.5 -256.667 150.5 -476c0 -160 -38.5 -305.833 -115.5 -437.5
s-191.5 -236.334 -343.5 -314.001s-332 -116.5 -540 -116.5h-1266v2941zM709 1696h716.001c201.333 0 354.166 36 458.499 108s156.5 194.333 156.5 367c0 142 -48 249.167 -144 321.5s-251.333 108.5 -466 108.5h-721v-905zM709.001 340.001l847 0.000976562
c203.333 0 358 47.667 464 143s159 226.666 159 393.999c0 330 -229.333 495 -688 495h-782v-1032z" />
    <glyph glyph-name="logicalnot" unicode="&#x412;" horiz-adv-x="2732" 
d="M311 2941l1295 0.000976562c176.667 0 327.5 -33.167 452.5 -99.5s219.333 -155.5 283 -267.5s95.5 -236.667 95.5 -374c0 -286.667 -131 -491.667 -393 -615c154 -62.667 281.167 -143 381.5 -241s150.5 -256.667 150.5 -476c0 -160 -38.5 -305.833 -115.5 -437.5
s-191.5 -236.334 -343.5 -314.001s-332 -116.5 -540 -116.5h-1266v2941zM709 1696h716.001c201.333 0 354.166 36 458.499 108s156.5 194.333 156.5 367c0 142 -48 249.167 -144 321.5s-251.333 108.5 -466 108.5h-721v-905zM709.001 340.001l847 0.000976562
c203.333 0 358 47.667 464 143s159 226.666 159 393.999c0 330 -229.333 495 -688 495h-782v-1032z" />
    <glyph glyph-name="radical" unicode="&#xc3;" 
d="M709 4h-398v2937h1930v-352h-1532v-2585z" />
    <glyph glyph-name="radical" unicode="&#x413;" 
d="M709 4h-398v2937h1930v-352h-1532v-2585z" />
    <glyph glyph-name="florin" unicode="&#xc4;" horiz-adv-x="2732" 
d="M430 0v-549h-360v901h196c70 114 119.667 233 149 357s44 270 44 438v1794h1962v-2589h225v-901h-360v549h-1856zM643 352h1380v2237h-1187v-1442c0 -301.333 -64.333 -566.333 -193 -795z" />
    <glyph glyph-name="florin" unicode="&#x414;" horiz-adv-x="2732" 
d="M430 0v-549h-360v901h196c70 114 119.667 233 149 357s44 270 44 438v1794h1962v-2589h225v-901h-360v549h-1856zM643 352h1380v2237h-1187v-1442c0 -301.333 -64.333 -566.333 -193 -795z" />
    <glyph glyph-name="approxequal" unicode="&#xc5;" horiz-adv-x="2732" 
d="M2482 0h-2171v2941h2143v-352h-1745v-901h1609v-353h-1609v-983h1773v-352z" />
    <glyph glyph-name="approxequal" unicode="&#x415;" horiz-adv-x="2732" 
d="M2482 0h-2171v2941h2143v-352h-1745v-901h1609v-353h-1609v-983h1773v-352z" />
    <glyph glyph-name="Delta" unicode="&#xc6;" horiz-adv-x="4092" 
d="M2253 0h-398v1032l-364 418l-909 -1450h-516l1138 1729l-1106 1212h549l1208 -1425v1425h398v-1425l1208 1425h549l-1106 -1212l1139 -1729h-516l-910 1450l-364 -418v-1032z" />
    <glyph glyph-name="Delta" unicode="&#x416;" horiz-adv-x="4092" 
d="M2253 0h-398v1032l-364 418l-909 -1450h-516l1138 1729l-1106 1212h549l1208 -1425v1425h398v-1425l1208 1425h549l-1106 -1212l1139 -1729h-516l-910 1450l-364 -418v-1032z" />
    <glyph glyph-name="guillemotleft" unicode="&#xc7;" horiz-adv-x="2732" 
d="M1331 1700c187.333 0 354.998 39.499 502.998 118.499s222 190.833 222 335.5c0 198 -70.5 333.667 -211.5 407s-302.5 110 -484.5 110c-200 0 -373.167 -47.333 -519.5 -142s-224.5 -246.667 -234.5 -456h-373c0 132.667 34.167 270.5 102.5 413.5
s190.333 266.167 366 369.5s410.167 155 703.5 155c198.667 0 377.5 -34.667 536.5 -104s282.667 -167 371 -293s132.5 -269.667 132.5 -431c0 -186 -57.167 -328.167 -171.5 -426.5s-237.166 -160.833 -368.499 -187.5c98.667 -16 197.834 -53.833 297.501 -113.5
s183.5 -140.5 251.5 -242.5s102 -219.667 102 -353c0 -208 -56.167 -383 -168.5 -525s-257 -246.333 -434 -313s-363.833 -100 -560.5 -100c-248.667 0 -454.834 37.5 -618.501 112.5s-288 168.167 -373 279.5s-143.167 222.833 -174.5 334.5s-47 212.167 -47 301.5h373
c0 -244 80 -419.667 240 -527s358.667 -161 596 -161c113.333 0 229.333 20.5 348 61.5s217.834 105.333 297.501 193s119.5 196.834 119.5 327.501c0 196 -82.833 336.5 -248.5 421.5s-366.5 127.5 -602.5 127.5c-118 0 -215 -3 -291 -9v324c70.667 -5.33301 177 -8 319 -8
z" />
    <glyph glyph-name="guillemotleft" unicode="&#x417;" horiz-adv-x="2732" 
d="M1331 1700c187.333 0 354.998 39.499 502.998 118.499s222 190.833 222 335.5c0 198 -70.5 333.667 -211.5 407s-302.5 110 -484.5 110c-200 0 -373.167 -47.333 -519.5 -142s-224.5 -246.667 -234.5 -456h-373c0 132.667 34.167 270.5 102.5 413.5
s190.333 266.167 366 369.5s410.167 155 703.5 155c198.667 0 377.5 -34.667 536.5 -104s282.667 -167 371 -293s132.5 -269.667 132.5 -431c0 -186 -57.167 -328.167 -171.5 -426.5s-237.166 -160.833 -368.499 -187.5c98.667 -16 197.834 -53.833 297.501 -113.5
s183.5 -140.5 251.5 -242.5s102 -219.667 102 -353c0 -208 -56.167 -383 -168.5 -525s-257 -246.333 -434 -313s-363.833 -100 -560.5 -100c-248.667 0 -454.834 37.5 -618.501 112.5s-288 168.167 -373 279.5s-143.167 222.833 -174.5 334.5s-47 212.167 -47 301.5h373
c0 -244 80 -419.667 240 -527s358.667 -161 596 -161c113.333 0 229.333 20.5 348 61.5s217.834 105.333 297.501 193s119.5 196.834 119.5 327.501c0 196 -82.833 336.5 -248.5 421.5s-366.5 127.5 -602.5 127.5c-118 0 -215 -3 -291 -9v324c70.667 -5.33301 177 -8 319 -8
z" />
    <glyph glyph-name="guillemotright" unicode="&#xc8;" horiz-adv-x="2957" 
d="M696 565h9l1470 2376h471v-2941h-385v2376h-8l-1495 -2376h-447v2941h385v-2376z" />
    <glyph glyph-name="guillemotright" unicode="&#x418;" horiz-adv-x="2957" 
d="M696 565h9l1470 2376h471v-2941h-385v2376h-8l-1495 -2376h-447v2941h385v-2376z" />
    <glyph glyph-name="ellipsis" unicode="&#xc9;" horiz-adv-x="2957" 
d="M696 565h9l1470 2376h471v-2941h-385v2376h-8l-1495 -2376h-447v2941h385v-2376zM2118 3469c-42 -371.333 -259.334 -557 -652.001 -557c-365.333 0 -568.666 185.667 -609.999 557h201c30.667 -93.333 63.334 -158.666 98.001 -196
c74.667 -84.667 189.334 -127 344.001 -127c143.333 0 242.666 30 297.999 90s96.666 137.667 123.999 233h197z" />
    <glyph glyph-name="ellipsis" unicode="&#x419;" horiz-adv-x="2957" 
d="M696 565h9l1470 2376h471v-2941h-385v2376h-8l-1495 -2376h-447v2941h385v-2376zM2118 3469c-42 -371.333 -259.334 -557 -652.001 -557c-365.333 0 -568.666 185.667 -609.999 557h201c30.667 -93.333 63.334 -158.666 98.001 -196
c74.667 -84.667 189.334 -127 344.001 -127c143.333 0 242.666 30 297.999 90s96.666 137.667 123.999 233h197z" />
    <glyph glyph-name="nonbreakingspace" unicode="&#xca;" horiz-adv-x="2732" 
d="M709 0h-398v2941h398v-1425l1425 1425h549l-1225 -1188l1258 -1753h-516l-1029 1475l-462 -443v-1032z" />
    <glyph glyph-name="nonbreakingspace" unicode="&#x41a;" horiz-adv-x="2732" 
d="M709 0h-398v2941h398v-1425l1425 1425h549l-1225 -1188l1258 -1753h-516l-1029 1475l-462 -443v-1032z" />
    <glyph glyph-name="Agrave" unicode="&#xcb;" horiz-adv-x="2732" 
d="M840 2589l-0.000976562 -1794c0 -228.667 -37 -406 -111 -532s-168.167 -210.833 -282.5 -254.5s-244.166 -65.5 -389.499 -65.5v356c159.333 0 266.833 42.667 322.5 128s83.5 208 83.5 368v2146h1966v-2941h-397v2589h-1192z" />
    <glyph glyph-name="Agrave" unicode="&#x41b;" horiz-adv-x="2732" 
d="M840 2589l-0.000976562 -1794c0 -228.667 -37 -406 -111 -532s-168.167 -210.833 -282.5 -254.5s-244.166 -65.5 -389.499 -65.5v356c159.333 0 266.833 42.667 322.5 128s83.5 208 83.5 368v2146h1966v-2941h-397v2589h-1192z" />
    <glyph glyph-name="Atilde" unicode="&#xcc;" horiz-adv-x="3412" 
d="M2744 0v1737c0 167.333 1.16699 317.5 3.5 450.5s4.16602 227.167 5.5 282.5h-9l-827 -2470h-393l-828 2466h-8c5.33301 0 8 -243 8 -729v-1737h-385v2941h570l839 -2486h9l835 2486h565v-2941h-385z" />
    <glyph glyph-name="Atilde" unicode="&#x41c;" horiz-adv-x="3412" 
d="M2744 0v1737c0 167.333 1.16699 317.5 3.5 450.5s4.16602 227.167 5.5 282.5h-9l-827 -2470h-393l-828 2466h-8c5.33301 0 8 -243 8 -729v-1737h-385v2941h570l839 -2486h9l835 2486h565v-2941h-385z" />
    <glyph glyph-name="Otilde" unicode="&#xcd;" horiz-adv-x="2957" 
d="M2245 2941h397v-2941h-397v1372h-1536v-1372h-398v2941h398v-1217h1536v1217z" />
    <glyph glyph-name="Otilde" unicode="&#x41d;" horiz-adv-x="2957" 
d="M2245 2941h397v-2941h-397v1372h-1536v-1372h-398v2941h398v-1217h1536v1217z" />
    <glyph glyph-name="OE" unicode="&#xce;" horiz-adv-x="3187" 
d="M1593 -78c-260 0 -482.668 48.168 -668.001 144.501s-333.166 222 -443.499 377s-189.5 321.333 -237.5 499s-72 353.5 -72 527.5c0 174.667 24 350.834 72 528.501s127 344 237 499s258 280.667 444 377s408.667 144.5 668 144.5c260 0 482.833 -47.833 668.5 -143.5
s333.667 -221.334 444 -377c110.333 -155.667 189.5 -322.334 237.5 -500.001s72 -353.834 72 -528.501c0 -174 -24 -349.833 -72 -527.5s-127.333 -344.167 -238 -499.5s-258.5 -281 -443.5 -377s-407.833 -144 -668.5 -144zM1593 2666c-208 0 -389.5 -51 -544.5 -153
s-273.667 -243.5 -356 -424.5s-123.5 -387.167 -123.5 -618.5s41.333 -437.666 124 -618.999s201.667 -322.833 357 -424.5s336.333 -152.5 543 -152.5s387.667 50.833 543 152.5s274.333 243.167 357 424.5s124 387.666 124 618.999s-41.167 437.5 -123.5 618.5
s-201 322.5 -356 424.5s-336.5 153 -544.5 153z" />
    <glyph glyph-name="OE" unicode="&#x41e;" horiz-adv-x="3187" 
d="M1593 -78c-260 0 -482.668 48.168 -668.001 144.501s-333.166 222 -443.499 377s-189.5 321.333 -237.5 499s-72 353.5 -72 527.5c0 174.667 24 350.834 72 528.501s127 344 237 499s258 280.667 444 377s408.667 144.5 668 144.5c260 0 482.833 -47.833 668.5 -143.5
s333.667 -221.334 444 -377c110.333 -155.667 189.5 -322.334 237.5 -500.001s72 -353.834 72 -528.501c0 -174 -24 -349.833 -72 -527.5s-127.333 -344.167 -238 -499.5s-258.5 -281 -443.5 -377s-407.833 -144 -668.5 -144zM1593 2666c-208 0 -389.5 -51 -544.5 -153
s-273.667 -243.5 -356 -424.5s-123.5 -387.167 -123.5 -618.5s41.333 -437.666 124 -618.999s201.667 -322.833 357 -424.5s336.333 -152.5 543 -152.5s387.667 50.833 543 152.5s274.333 243.167 357 424.5s124 387.666 124 618.999s-41.167 437.5 -123.5 618.5
s-201 322.5 -356 424.5s-336.5 153 -544.5 153z" />
    <glyph glyph-name="oe" unicode="&#xcf;" horiz-adv-x="2957" 
d="M2642 2941v-2941h-397v2589h-1536v-2589h-398v2941h2331z" />
    <glyph glyph-name="oe" unicode="&#x41f;" horiz-adv-x="2957" 
d="M2642 2941v-2941h-397v2589h-1536v-2589h-398v2941h2331z" />
    <glyph glyph-name="emdash" unicode="&#xd0;" horiz-adv-x="2732" 
d="M709 -4h-397.998v2941h1368c176.667 0 331.167 -35.333 463.5 -106s233.666 -169.167 303.999 -295.5s105.5 -268.5 105.5 -426.5c0 -234.667 -71.833 -438.667 -215.5 -612s-362.834 -260 -657.501 -260h-970v-1241zM709.002 1577h835c398.667 0 598 176 598 528
c0 328 -193.667 492 -581 492h-852v-1020z" />
    <glyph glyph-name="emdash" unicode="&#x420;" horiz-adv-x="2732" 
d="M709 -4h-397.998v2941h1368c176.667 0 331.167 -35.333 463.5 -106s233.666 -169.167 303.999 -295.5s105.5 -268.5 105.5 -426.5c0 -234.667 -71.833 -438.667 -215.5 -612s-362.834 -260 -657.501 -260h-970v-1241zM709.002 1577h835c398.667 0 598 176 598 528
c0 328 -193.667 492 -581 492h-852v-1020z" />
    <glyph glyph-name="endash" unicode="&#xd1;" horiz-adv-x="2957" 
d="M2376 2056c-49.333 230 -152.499 389.169 -309.499 477.502s-328.5 132.5 -514.5 132.5c-181.333 0 -344.833 -44.333 -490.5 -133s-260.667 -220.834 -345 -396.501s-126.5 -388.167 -126.5 -637.5c0 -374.667 76.5 -672.5 229.5 -893.5s401.5 -331.5 745.5 -331.5
c104.667 0 212.667 22 324 66s214.666 126.167 309.999 246.5s163.666 285.166 205 494.499h385c-48.667 -332 -155.834 -584.167 -321.5 -756.5c-165.667 -172.333 -333.834 -282.5 -504.5 -330.5c-170.667 -48 -324 -72 -460 -72c-174 0 -339.333 29.5 -496 88.5
s-297.5 151.5 -422.5 277.5s-223.667 289.333 -296 490s-108.5 437 -108.5 709c0 226.667 31.333 434 94 622s153.5 349.833 272.5 485.5s263.5 240.334 433.5 314c170 73.667 360.667 110.5 572 110.5c240 0 448 -44.5 624 -133.5s312.5 -206.833 409.5 -353.5
s155.5 -305.334 175.5 -476h-385z" />
    <glyph glyph-name="endash" unicode="&#x421;" horiz-adv-x="2957" 
d="M2376 2056c-49.333 230 -152.499 389.169 -309.499 477.502s-328.5 132.5 -514.5 132.5c-181.333 0 -344.833 -44.333 -490.5 -133s-260.667 -220.834 -345 -396.501s-126.5 -388.167 -126.5 -637.5c0 -374.667 76.5 -672.5 229.5 -893.5s401.5 -331.5 745.5 -331.5
c104.667 0 212.667 22 324 66s214.666 126.167 309.999 246.5s163.666 285.166 205 494.499h385c-48.667 -332 -155.834 -584.167 -321.5 -756.5c-165.667 -172.333 -333.834 -282.5 -504.5 -330.5c-170.667 -48 -324 -72 -460 -72c-174 0 -339.333 29.5 -496 88.5
s-297.5 151.5 -422.5 277.5s-223.667 289.333 -296 490s-108.5 437 -108.5 709c0 226.667 31.333 434 94 622s153.5 349.833 272.5 485.5s263.5 240.334 433.5 314c170 73.667 360.667 110.5 572 110.5c240 0 448 -44.5 624 -133.5s312.5 -206.833 409.5 -353.5
s155.5 -305.334 175.5 -476h-385z" />
    <glyph glyph-name="quotedblleft" unicode="&#xd2;" horiz-adv-x="2503" 
d="M57 2941h2388v-352h-995v-2589h-397v2589h-996v352z" />
    <glyph glyph-name="quotedblleft" unicode="&#x422;" horiz-adv-x="2503" 
d="M57 2941h2388v-352h-995v-2589h-397v2589h-996v352z" />
    <glyph glyph-name="quotedblright" unicode="&#xd3;" horiz-adv-x="2732" 
d="M1065 -49c-30 -8 -73.667 -12 -131 -12c-90 4 -178.667 19 -266 45v364c66.667 -38 133.334 -57 200.001 -57c105.333 0 182 47.667 230 143l176 352l-1204 2155h495l922 -1720l745 1720h455l-1212 -2593c-110.667 -228.667 -247.334 -361 -410.001 -397z" />
    <glyph glyph-name="quotedblright" unicode="&#x423;" horiz-adv-x="2732" 
d="M1065 -49c-30 -8 -73.667 -12 -131 -12c-90 4 -178.667 19 -266 45v364c66.667 -38 133.334 -57 200.001 -57c105.333 0 182 47.667 230 143l176 352l-1204 2155h495l922 -1720l745 1720h455l-1212 -2593c-110.667 -228.667 -247.334 -361 -410.001 -397z" />
    <glyph glyph-name="quoteleft" unicode="&#xd4;" horiz-adv-x="3412" 
d="M1905 2634c222.667 0 419.998 -31.335 591.998 -94.002s315.167 -148.334 429.5 -257c114.333 -108.667 200 -233 257 -373s85.5 -286.667 85.5 -440s-28.333 -299.833 -85 -439.5s-142.667 -264.5 -258 -374.5s-258.333 -196.333 -429 -259s-368 -94 -592 -94v-303h-394
v303c-223.333 0 -420.666 31.333 -591.999 94s-314.333 148.834 -429 258.501s-200.5 234.334 -257.5 374.001s-85.5 286.5 -85.5 440.5s28.833 301.167 86.5 441.5s143.5 265 257.5 374s256.833 195 428.5 258s368.834 94.5 591.501 94.5v303h394v-307zM1905 2327v-1713
c188 0 353.667 29.833 497 89.5s255.333 153.834 336 282.501s121 290 121 484c0 194.667 -40.333 356.334 -121 485.001s-192.667 222.834 -336 282.5c-143.333 59.667 -309 89.5 -497 89.5zM1511 613.996v1713c-187.333 0 -352.666 -29.833 -495.999 -89.5
s-255.5 -153.667 -336.5 -282s-121.5 -290.166 -121.5 -485.499c0 -194.667 40.5 -356.167 121.5 -484.5s193.167 -222.333 336.5 -282s308.666 -89.5 495.999 -89.5z" />
    <glyph glyph-name="quoteleft" unicode="&#x424;" horiz-adv-x="3412" 
d="M1905 2634c222.667 0 419.998 -31.335 591.998 -94.002s315.167 -148.334 429.5 -257c114.333 -108.667 200 -233 257 -373s85.5 -286.667 85.5 -440s-28.333 -299.833 -85 -439.5s-142.667 -264.5 -258 -374.5s-258.333 -196.333 -429 -259s-368 -94 -592 -94v-303h-394
v303c-223.333 0 -420.666 31.333 -591.999 94s-314.333 148.834 -429 258.501s-200.5 234.334 -257.5 374.001s-85.5 286.5 -85.5 440.5s28.833 301.167 86.5 441.5s143.5 265 257.5 374s256.833 195 428.5 258s368.834 94.5 591.501 94.5v303h394v-307zM1905 2327v-1713
c188 0 353.667 29.833 497 89.5s255.333 153.834 336 282.501s121 290 121 484c0 194.667 -40.333 356.334 -121 485.001s-192.667 222.834 -336 282.5c-143.333 59.667 -309 89.5 -497 89.5zM1511 613.996v1713c-187.333 0 -352.666 -29.833 -495.999 -89.5
s-255.5 -153.667 -336.5 -282s-121.5 -290.166 -121.5 -485.499c0 -194.667 40.5 -356.167 121.5 -484.5s193.167 -222.333 336.5 -282s308.666 -89.5 495.999 -89.5z" />
    <glyph glyph-name="quoteright" unicode="&#xd5;" horiz-adv-x="2732" 
d="M2654 0h-491l-803 1208l-803 -1208h-479l1040 1507l-987 1434h500l741 -1126l754 1126h475l-995 -1434z" />
    <glyph glyph-name="quoteright" unicode="&#x425;" horiz-adv-x="2732" 
d="M2654 0h-491l-803 1208l-803 -1208h-479l1040 1507l-987 1434h500l741 -1126l754 1126h475l-995 -1434z" />
    <glyph glyph-name="divide" unicode="&#xd6;" horiz-adv-x="2957" 
d="M2507 0h-2196v2941h398v-2589h1536v2589h397v-2589h225v-901h-360v549z" />
    <glyph glyph-name="divide" unicode="&#x426;" horiz-adv-x="2957" 
d="M2507 0h-2196v2941h398v-2589h1536v2589h397v-2589h225v-901h-360v549z" />
    <glyph glyph-name="lozenge" unicode="&#xd7;" horiz-adv-x="2957" 
d="M2245 2941h397.001v-2941h-397v1372c-94 -38.667 -244 -87.167 -450 -145.5s-416.667 -87.5 -632 -87.5c-252.667 0 -457.834 60.333 -615.501 181s-236.5 325 -236.5 613v1008h398v-971c0 -300 189.667 -450 569 -450c182.667 0 367.5 25.5 554.5 76.5
s324.5 93.5 412.5 127.5v1217z" />
    <glyph glyph-name="lozenge" unicode="&#x427;" horiz-adv-x="2957" 
d="M2245 2941h397.001v-2941h-397v1372c-94 -38.667 -244 -87.167 -450 -145.5s-416.667 -87.5 -632 -87.5c-252.667 0 -457.834 60.333 -615.501 181s-236.5 325 -236.5 613v1008h398v-971c0 -300 189.667 -450 569 -450c182.667 0 367.5 25.5 554.5 76.5
s324.5 93.5 412.5 127.5v1217z" />
    <glyph glyph-name="ydieresis" unicode="&#xd8;" horiz-adv-x="3490" 
d="M1925 352h823v2589h398v-2941h-2835v2941h398v-2589h819v2589h397v-2589z" />
    <glyph glyph-name="ydieresis" unicode="&#x428;" horiz-adv-x="3490" 
d="M1925 352h823v2589h398v-2941h-2835v2941h398v-2589h819v2589h397v-2589z" />
    <glyph glyph-name="Ydieresis" unicode="&#xd9;" horiz-adv-x="3490" 
d="M3011 0h-2700v2941h398v-2589h819v2589h397v-2589h823v2589h398v-2589h225v-901h-360v549z" />
    <glyph glyph-name="Ydieresis" unicode="&#x429;" horiz-adv-x="3490" 
d="M3011 0h-2700v2941h398v-2589h819v2589h397v-2589h823v2589h398v-2589h225v-901h-360v549z" />
    <glyph glyph-name="fraction" unicode="&#xda;" horiz-adv-x="2957" 
d="M934 1700h971c200.667 0 366.5 -42.333 497.5 -127s226.167 -193.667 285.5 -327s89 -273 89 -419c0 -157.333 -36.167 -299 -108.5 -425s-174.833 -224.5 -307.5 -295.5s-284.667 -106.5 -456 -106.5h-1368v2605h-541v336h938v-1241zM934 340h852
c387.333 0 581 163.667 581 491c0 352.667 -199.333 529 -598 529h-835v-1020z" />
    <glyph glyph-name="fraction" unicode="&#x42a;" horiz-adv-x="2957" 
d="M934 1700h971c200.667 0 366.5 -42.333 497.5 -127s226.167 -193.667 285.5 -327s89 -273 89 -419c0 -157.333 -36.167 -299 -108.5 -425s-174.833 -224.5 -307.5 -295.5s-284.667 -106.5 -456 -106.5h-1368v2605h-541v336h938v-1241zM934 340h852
c387.333 0 581 163.667 581 491c0 352.667 -199.333 529 -598 529h-835v-1020z" />
    <glyph glyph-name="currency" unicode="&#xdb;" horiz-adv-x="3564" 
d="M709 1700l925 -0.000976562c200.667 0 366.5 -42.167 497.5 -126.5s226.333 -193.166 286 -326.499s89.5 -273.333 89.5 -420c0 -158 -35.167 -300 -105.5 -426s-171.666 -224.333 -304 -295c-132.333 -70.667 -286.833 -106 -463.5 -106h-1323v2941h398v-1241z
M3252 -0.000976562h-397v2941h397v-2941zM709 339.999h807c387.333 0 581 163.667 581 491c0 352.667 -199.333 529 -598 529h-790v-1020z" />
    <glyph glyph-name="currency" unicode="&#x42b;" horiz-adv-x="3564" 
d="M709 1700l925 -0.000976562c200.667 0 366.5 -42.167 497.5 -126.5s226.333 -193.166 286 -326.499s89.5 -273.333 89.5 -420c0 -158 -35.167 -300 -105.5 -426s-171.666 -224.333 -304 -295c-132.333 -70.667 -286.833 -106 -463.5 -106h-1323v2941h398v-1241z
M3252 -0.000976562h-397v2941h397v-2941zM709 339.999h807c387.333 0 581 163.667 581 491c0 352.667 -199.333 529 -598 529h-790v-1020z" />
    <glyph glyph-name="guilsinglleft" unicode="&#xdc;" horiz-adv-x="2732" 
d="M709 1700l970 -0.000976562c200.667 0 366.5 -42.167 497.5 -126.5s226.333 -193.166 286 -326.499s89.5 -273.333 89.5 -420c0 -158 -35.167 -300 -105.5 -426s-171.666 -224.333 -304 -295c-132.333 -70.667 -286.833 -106 -463.5 -106h-1368v2941h398v-1241z
M709 339.999h852c387.333 0 581 163.667 581 491c0 352.667 -199.333 529 -598 529h-835v-1020z" />
    <glyph glyph-name="guilsinglleft" unicode="&#x42c;" horiz-adv-x="2732" 
d="M709 1700l970 -0.000976562c200.667 0 366.5 -42.167 497.5 -126.5s226.333 -193.166 286 -326.499s89.5 -273.333 89.5 -420c0 -158 -35.167 -300 -105.5 -426s-171.666 -224.333 -304 -295c-132.333 -70.667 -286.833 -106 -463.5 -106h-1368v2941h398v-1241z
M709 339.999h852c387.333 0 581 163.667 581 491c0 352.667 -199.333 529 -598 529h-835v-1020z" />
    <glyph glyph-name="guilsinglright" unicode="&#xdd;" horiz-adv-x="2957" 
d="M2359 1667c-31.333 319.333 -127.333 565.667 -288 739s-369 260 -625 260c-195.333 0 -373.333 -43.833 -534 -131.5s-270.667 -247.167 -330 -478.5h-385c34.667 172.667 103.167 332 205.5 478s242 263.333 419 352s385.167 133 624.5 133
c207.333 0 394.166 -37.5 560.499 -112.5s306.5 -180.333 420.5 -316s200.833 -297.5 260.5 -485.5s89.5 -394 89.5 -618c0 -357.333 -61.333 -653.5 -184 -888.5s-284.5 -406.5 -485.5 -514.5s-418.833 -162 -653.5 -162c-81.333 0 -182 11.667 -302 35
s-249 70.5 -387 141.5s-262.5 177.333 -373.5 319s-185.5 321.834 -223.5 540.501h385c34.667 -170.667 103.334 -307.334 206.001 -410.001s214.834 -174 336.501 -214s234.5 -60 338.5 -60c299.333 0 523.666 95.167 672.999 285.5s234.666 448.833 256 775.5h-1605v332
h1601z" />
    <glyph glyph-name="guilsinglright" unicode="&#x42d;" horiz-adv-x="2957" 
d="M2359 1667c-31.333 319.333 -127.333 565.667 -288 739s-369 260 -625 260c-195.333 0 -373.333 -43.833 -534 -131.5s-270.667 -247.167 -330 -478.5h-385c34.667 172.667 103.167 332 205.5 478s242 263.333 419 352s385.167 133 624.5 133
c207.333 0 394.166 -37.5 560.499 -112.5s306.5 -180.333 420.5 -316s200.833 -297.5 260.5 -485.5s89.5 -394 89.5 -618c0 -357.333 -61.333 -653.5 -184 -888.5s-284.5 -406.5 -485.5 -514.5s-418.833 -162 -653.5 -162c-81.333 0 -182 11.667 -302 35
s-249 70.5 -387 141.5s-262.5 177.333 -373.5 319s-185.5 321.834 -223.5 540.501h385c34.667 -170.667 103.334 -307.334 206.001 -410.001s214.834 -174 336.501 -214s234.5 -60 338.5 -60c299.333 0 523.666 95.167 672.999 285.5s234.666 448.833 256 775.5h-1605v332
h1601z" />
    <glyph glyph-name="fi" unicode="&#xde;" horiz-adv-x="3944" 
d="M1077 1372l-367.997 0.00195312v-1372h-398v2941h398v-1217h372c22.667 162 63.667 318.667 123 470s141.666 289.166 246.999 413.499s238.833 224 400.5 299s351.5 112.5 569.5 112.5c248.667 0 461.167 -48 637.5 -144s316.333 -221 420 -375
s178.5 -320.667 224.5 -500s69 -356 69 -530c0 -173.333 -23.667 -348.833 -71 -526.5s-124.833 -344.167 -232.5 -499.5s-252.167 -281.166 -433.5 -377.499s-399.666 -144.5 -655 -144.5c-224.667 0 -418.834 43.5 -582.501 130.5s-296.667 202.167 -399 345.5
s-178.833 298.666 -229.5 465.999s-81.334 336.666 -92.001 507.999zM2421 2666c-200.667 0 -371.668 -50.667 -513.001 -152s-248.166 -242.5 -320.499 -423.5s-108.5 -387.833 -108.5 -620.5c0 -353.333 84.667 -641 254 -863s398.666 -333 687.999 -333
c198 0 368.333 50.667 511 152s250.167 242.5 322.5 423.5s108.5 387.833 108.5 620.5c0 172.667 -21.167 332.167 -63.5 478.5s-104.333 273.166 -186 380.5c-81.667 107.333 -181.167 190.333 -298.5 249s-248.666 88 -393.999 88z" />
    <glyph glyph-name="fi" unicode="&#x42e;" horiz-adv-x="3944" 
d="M1077 1372l-367.997 0.00195312v-1372h-398v2941h398v-1217h372c22.667 162 63.667 318.667 123 470s141.666 289.166 246.999 413.499s238.833 224 400.5 299s351.5 112.5 569.5 112.5c248.667 0 461.167 -48 637.5 -144s316.333 -221 420 -375
s178.5 -320.667 224.5 -500s69 -356 69 -530c0 -173.333 -23.667 -348.833 -71 -526.5s-124.833 -344.167 -232.5 -499.5s-252.167 -281.166 -433.5 -377.499s-399.666 -144.5 -655 -144.5c-224.667 0 -418.834 43.5 -582.501 130.5s-296.667 202.167 -399 345.5
s-178.833 298.666 -229.5 465.999s-81.334 336.666 -92.001 507.999zM2421 2666c-200.667 0 -371.668 -50.667 -513.001 -152s-248.166 -242.5 -320.499 -423.5s-108.5 -387.833 -108.5 -620.5c0 -353.333 84.667 -641 254 -863s398.666 -333 687.999 -333
c198 0 368.333 50.667 511 152s250.167 242.5 322.5 423.5s108.5 387.833 108.5 620.5c0 172.667 -21.167 332.167 -63.5 478.5s-104.333 273.166 -186 380.5c-81.667 107.333 -181.167 190.333 -298.5 249s-248.666 88 -393.999 88z" />
    <glyph glyph-name="fl" unicode="&#xdf;" horiz-adv-x="2957" 
d="M2208 1262h-602l-889 -1262h-520l917 1266c-129.333 0 -257.833 29.333 -385.5 88s-234.5 153.167 -320.5 283.5s-129 295.833 -129 496.5c0 196 44.667 354 134 474s206.333 205.5 351 256.5s305 76.5 481 76.5h1360v-2941h-397v1262zM2208 2601l-991 -0.000976562
c-352.667 0 -529 -164 -529 -492c0 -134.667 28 -239.667 84 -315s127.5 -126.166 214.5 -152.499s186.833 -39.5 299.5 -39.5h922v999z" />
    <glyph glyph-name="fl" unicode="&#x42f;" horiz-adv-x="2957" 
d="M2208 1262h-602l-889 -1262h-520l917 1266c-129.333 0 -257.833 29.333 -385.5 88s-234.5 153.167 -320.5 283.5s-129 295.833 -129 496.5c0 196 44.667 354 134 474s206.333 205.5 351 256.5s305 76.5 481 76.5h1360v-2941h-397v1262zM2208 2601l-991 -0.000976562
c-352.667 0 -529 -164 -529 -492c0 -134.667 28 -239.667 84 -315s127.5 -126.166 214.5 -152.499s186.833 -39.5 299.5 -39.5h922v999z" />
    <glyph glyph-name="daggerdbl" unicode="&#xe0;" 
d="M254 1491c8 246.667 88.3281 427.167 240.995 541.5s367.334 171.5 644.001 171.5c92 0 198.333 -14 319 -42s230 -86.667 328 -176s147 -216 147 -380v-1233c0 -84.667 39.667 -127 119 -127c24.667 0 64.334 5.33301 119 16v-262l-66 -20
c-17.333 -5.33301 -37.666 -10.166 -60.999 -14.499s-46.666 -6.5 -69.999 -6.5c-143.333 0 -240.5 29 -291.5 87s-80.833 138.333 -89.5 241c-92 -101.333 -197.5 -184.666 -316.5 -249.999s-271.5 -98 -457.5 -98c-130 0 -246 25.833 -348 77.5s-181.5 124.5 -238.5 218.5
s-85.5 201.333 -85.5 322c0 145.333 43.667 285.666 131 420.999s261 219 521 251l594 74c125.333 11.333 188 95.666 188 252.999c0 232.667 -168 349 -504 349c-179.333 0 -301.666 -39.5 -366.999 -118.5s-106.666 -177.5 -123.999 -295.5h-332zM1573 1094
c-32 -25.333 -87.6689 -47.666 -167.002 -66.999s-221.666 -42.333 -426.999 -69c-81.333 -11.333 -154.166 -27 -218.499 -47s-120.5 -54.5 -168.5 -103.5s-72 -114.833 -72 -197.5c0 -248 129.667 -372 389 -372c110.667 0 217.5 22.167 320.5 66.5
s186 105.166 249 182.499s94.5 162 94.5 254v353z" />
    <glyph glyph-name="daggerdbl" unicode="&#x430;" 
d="M254 1491c8 246.667 88.3281 427.167 240.995 541.5s367.334 171.5 644.001 171.5c92 0 198.333 -14 319 -42s230 -86.667 328 -176s147 -216 147 -380v-1233c0 -84.667 39.667 -127 119 -127c24.667 0 64.334 5.33301 119 16v-262l-66 -20
c-17.333 -5.33301 -37.666 -10.166 -60.999 -14.499s-46.666 -6.5 -69.999 -6.5c-143.333 0 -240.5 29 -291.5 87s-80.833 138.333 -89.5 241c-92 -101.333 -197.5 -184.666 -316.5 -249.999s-271.5 -98 -457.5 -98c-130 0 -246 25.833 -348 77.5s-181.5 124.5 -238.5 218.5
s-85.5 201.333 -85.5 322c0 145.333 43.667 285.666 131 420.999s261 219 521 251l594 74c125.333 11.333 188 95.666 188 252.999c0 232.667 -168 349 -504 349c-179.333 0 -301.666 -39.5 -366.999 -118.5s-106.666 -177.5 -123.999 -295.5h-332zM1573 1094
c-32 -25.333 -87.6689 -47.666 -167.002 -66.999s-221.666 -42.333 -426.999 -69c-81.333 -11.333 -154.166 -27 -218.499 -47s-120.5 -54.5 -168.5 -103.5s-72 -114.833 -72 -197.5c0 -248 129.667 -372 389 -372c110.667 0 217.5 22.167 320.5 66.5
s186 105.166 249 182.499s94.5 162 94.5 254v353z" />
    <glyph glyph-name="periodcentered" unicode="&#xe1;" 
d="M1753 2945l253.997 0.00390625c0 -140.667 -35.333 -241.667 -106 -303c-67.333 -59.333 -182.666 -97.333 -345.999 -114s-323.166 -34.334 -479.499 -53c-156.333 -18.667 -275.833 -64 -358.5 -136c-121.333 -102.667 -210 -283 -266 -541h12
c68 80.667 132.5 145.167 193.5 193.5s134.667 85.5 221 111.5s193.833 39 322.5 39c193.333 0 361.166 -52.5 503.499 -157.5s250.333 -242.333 324 -412s110.5 -347.167 110.5 -532.5c0 -189.333 -37.167 -367.833 -111.5 -535.5s-189.166 -303.834 -344.499 -408.501
s-346 -157 -572 -157c-113.333 0 -226.166 22 -338.499 66s-216.5 116.167 -312.5 216.5s-172.667 233.666 -230 399.999s-86 366.166 -86 599.499c0 151.333 6.66699 295.666 20 432.999s40 272.333 80 405s99 256.167 177 370.5s179.667 211.166 305 290.5
c138 87.333 408.333 131 811 131h123c62.667 7.33301 94 38.666 94 94zM1765 1040c0 98.667 -17.5 208.834 -52.5 330.501s-98.833 228.834 -191.5 321.501s-218.667 139 -378 139c-160 0 -286.333 -46.333 -379 -139s-156.5 -199.834 -191.5 -321.501
s-52.5 -231.834 -52.5 -330.501s17.5 -208.667 52.5 -330s98.833 -228.333 191.5 -321s219 -139 379 -139c159.333 0 285.333 46.333 378 139s156.5 199.667 191.5 321s52.5 231.333 52.5 330z" />
    <glyph glyph-name="periodcentered" unicode="&#x431;" 
d="M1753 2945l253.997 0.00390625c0 -140.667 -35.333 -241.667 -106 -303c-67.333 -59.333 -182.666 -97.333 -345.999 -114s-323.166 -34.334 -479.499 -53c-156.333 -18.667 -275.833 -64 -358.5 -136c-121.333 -102.667 -210 -283 -266 -541h12
c68 80.667 132.5 145.167 193.5 193.5s134.667 85.5 221 111.5s193.833 39 322.5 39c193.333 0 361.166 -52.5 503.499 -157.5s250.333 -242.333 324 -412s110.5 -347.167 110.5 -532.5c0 -189.333 -37.167 -367.833 -111.5 -535.5s-189.166 -303.834 -344.499 -408.501
s-346 -157 -572 -157c-113.333 0 -226.166 22 -338.499 66s-216.5 116.167 -312.5 216.5s-172.667 233.666 -230 399.999s-86 366.166 -86 599.499c0 151.333 6.66699 295.666 20 432.999s40 272.333 80 405s99 256.167 177 370.5s179.667 211.166 305 290.5
c138 87.333 408.333 131 811 131h123c62.667 7.33301 94 38.666 94 94zM1765 1040c0 98.667 -17.5 208.834 -52.5 330.501s-98.833 228.834 -191.5 321.501s-218.667 139 -378 139c-160 0 -286.333 -46.333 -379 -139s-156.5 -199.834 -191.5 -321.501
s-52.5 -231.834 -52.5 -330.501s17.5 -208.667 52.5 -330s98.833 -228.333 191.5 -321s219 -139 379 -139c159.333 0 285.333 46.333 378 139s156.5 199.667 191.5 321s52.5 231.333 52.5 330z" />
    <glyph glyph-name="quotesinglbase" unicode="&#xe2;" horiz-adv-x="2261" 
d="M279 2142l1052 -0.000976562c222.667 0 384.167 -49.667 484.5 -149s150.5 -229.666 150.5 -390.999c0 -89.333 -26.833 -177.833 -80.5 -265.5s-146.834 -156.5 -279.501 -206.5c136.667 -34 252 -85.5 346 -154.5s141 -183.833 141 -344.5
c0 -119.333 -25.5 -226.333 -76.5 -321s-135.167 -170 -252.5 -226s-269.666 -84 -456.999 -84h-1028v2142zM639 1241l528.001 -0.000976562c105.333 0 189.666 10.167 252.999 30.5s109.5 55.333 138.5 105s43.5 117.834 43.5 204.501c0 94.667 -30.167 162 -90.5 202
s-173.833 60 -340.5 60h-532v-602zM639.001 298.998h646.999c161.333 0 275.5 26.5 342.5 79.5s100.5 139.833 100.5 260.5c0 116 -37.667 197.5 -113 244.5s-205.666 70.5 -390.999 70.5h-586v-655z" />
    <glyph glyph-name="quotesinglbase" unicode="&#x432;" horiz-adv-x="2261" 
d="M279 2142l1052 -0.000976562c222.667 0 384.167 -49.667 484.5 -149s150.5 -229.666 150.5 -390.999c0 -89.333 -26.833 -177.833 -80.5 -265.5s-146.834 -156.5 -279.501 -206.5c136.667 -34 252 -85.5 346 -154.5s141 -183.833 141 -344.5
c0 -119.333 -25.5 -226.333 -76.5 -321s-135.167 -170 -252.5 -226s-269.666 -84 -456.999 -84h-1028v2142zM639 1241l528.001 -0.000976562c105.333 0 189.666 10.167 252.999 30.5s109.5 55.333 138.5 105s43.5 117.834 43.5 204.501c0 94.667 -30.167 162 -90.5 202
s-173.833 60 -340.5 60h-532v-602zM639.001 298.998h646.999c161.333 0 275.5 26.5 342.5 79.5s100.5 139.833 100.5 260.5c0 116 -37.667 197.5 -113 244.5s-205.666 70.5 -390.999 70.5h-586v-655z" />
    <glyph glyph-name="quotedblbase" unicode="&#xe3;" horiz-adv-x="1667" 
d="M639 1843v-1843h-360v2142h1392v-299h-1032z" />
    <glyph glyph-name="quotedblbase" unicode="&#x433;" horiz-adv-x="1667" 
d="M639 1843v-1843h-360v2142h1392v-299h-1032z" />
    <glyph glyph-name="perthousand" unicode="&#xe4;" horiz-adv-x="2109" 
d="M319 0v-549h-319v848h147c32.667 17.333 66.167 66.5 100.5 147.5s51.5 168.5 51.5 262.5v1433h1532v-1843h192v-848h-319v549h-1385zM1470 299v1544h-831v-1134c0 -178 -47.667 -314.667 -143 -410h974z" />
    <glyph glyph-name="perthousand" unicode="&#x434;" horiz-adv-x="2109" 
d="M319 0v-549h-319v848h147c32.667 17.333 66.167 66.5 100.5 147.5s51.5 168.5 51.5 262.5v1433h1532v-1843h192v-848h-319v549h-1385zM1470 299v1544h-831v-1134c0 -178 -47.667 -314.667 -143 -410h974z" />
    <glyph glyph-name="Acircumflex" unicode="&#xe5;" 
d="M2085 672c-9.33301 -76.667 -45.667 -173.835 -109 -291.502s-154 -215.834 -272 -294.501c-145.333 -98 -339.333 -147 -582 -147c-196.667 0 -367.167 45.833 -511.5 137.5s-254.833 218.667 -331.5 381s-115 347.166 -115 554.499c0 228 37.333 431.833 112 611.5
s189 321.334 343 425.001s345 155.5 573 155.5c202 0 372 -50.833 510 -152.5s241.167 -246.667 309.5 -435s102.5 -409.166 102.5 -662.499h-1565c0 -226 52.667 -399.833 158 -521.5s260 -182.5 464 -182.5c104.667 0 198.5 22.833 281.5 68.5s148 101.834 195 168.501
s72.5 128.334 76.5 185.001h361zM1741 1241c-26.667 426 -226.001 639 -598.001 639c-107.333 0 -206.666 -29.833 -297.999 -89.5s-163.5 -138.667 -216.5 -237s-79.5 -202.5 -79.5 -312.5h1192z" />
    <glyph glyph-name="Acircumflex" unicode="&#x435;" 
d="M2085 672c-9.33301 -76.667 -45.667 -173.835 -109 -291.502s-154 -215.834 -272 -294.501c-145.333 -98 -339.333 -147 -582 -147c-196.667 0 -367.167 45.833 -511.5 137.5s-254.833 218.667 -331.5 381s-115 347.166 -115 554.499c0 228 37.333 431.833 112 611.5
s189 321.334 343 425.001s345 155.5 573 155.5c202 0 372 -50.833 510 -152.5s241.167 -246.667 309.5 -435s102.5 -409.166 102.5 -662.499h-1565c0 -226 52.667 -399.833 158 -521.5s260 -182.5 464 -182.5c104.667 0 198.5 22.833 281.5 68.5s148 101.834 195 168.501
s72.5 128.334 76.5 185.001h361zM1741 1241c-26.667 426 -226.001 639 -598.001 639c-107.333 0 -206.666 -29.833 -297.999 -89.5s-163.5 -138.667 -216.5 -237s-79.5 -202.5 -79.5 -312.5h1192z" />
    <glyph glyph-name="Ecircumflex" unicode="&#xe6;" horiz-adv-x="2957" 
d="M1651 2142v-905l798 905h459l-860 -880l909 -1262h-463l-708 999l-135 -188v-811h-348v811l-136 188l-708 -999h-463l909 1262l-860 880h459l799 -905v905h348z" />
    <glyph glyph-name="Ecircumflex" unicode="&#x436;" horiz-adv-x="2957" 
d="M1651 2142v-905l798 905h459l-860 -880l909 -1262h-463l-708 999l-135 -188v-811h-348v811l-136 188l-708 -999h-463l909 1262l-860 880h459l799 -905v905h348z" />
    <glyph glyph-name="Aacute" unicode="&#xe7;" horiz-adv-x="2048" 
d="M991 1253c140 0 252.836 26.665 338.503 79.998s128.5 132 128.5 236c0 224 -146 336 -438 336c-333.333 0 -500 -131.333 -500 -394h-340c0 92 20.5 188.833 61.5 290.5s126.5 192 256.5 271s315 118.5 555 118.5c155.333 0 291.666 -27 408.999 -81
s206.833 -124.833 268.5 -212.5s92.5 -179.5 92.5 -275.5c0 -164 -40.333 -278.333 -121 -343s-178.334 -108.667 -293.001 -132c341.333 -50.667 512 -224 512 -520c0 -144 -38.667 -267.833 -116 -371.5s-182.5 -181.667 -315.5 -234s-279.833 -78.5 -440.5 -78.5
c-255.333 0 -451.5 44.333 -588.5 133s-226.167 188.667 -267.5 300s-62 216.666 -62 315.999h340c0 -110.667 21.5 -200 64.5 -268s106.667 -116.833 191 -146.5s190.166 -44.5 317.499 -44.5c338.667 0 508 130 508 390c0 150.667 -51.333 250.334 -154 299.001
s-246.334 73 -431.001 73c-36.667 -1.33301 -81 -2.66602 -133 -3.99902s-96.667 -2.66602 -134 -3.99902v270c36.667 0 88.334 -0.666992 155.001 -2s112 -2 136 -2z" />
    <glyph glyph-name="Aacute" unicode="&#x437;" horiz-adv-x="2048" 
d="M991 1253c140 0 252.836 26.665 338.503 79.998s128.5 132 128.5 236c0 224 -146 336 -438 336c-333.333 0 -500 -131.333 -500 -394h-340c0 92 20.5 188.833 61.5 290.5s126.5 192 256.5 271s315 118.5 555 118.5c155.333 0 291.666 -27 408.999 -81
s206.833 -124.833 268.5 -212.5s92.5 -179.5 92.5 -275.5c0 -164 -40.333 -278.333 -121 -343s-178.334 -108.667 -293.001 -132c341.333 -50.667 512 -224 512 -520c0 -144 -38.667 -267.833 -116 -371.5s-182.5 -181.667 -315.5 -234s-279.833 -78.5 -440.5 -78.5
c-255.333 0 -451.5 44.333 -588.5 133s-226.167 188.667 -267.5 300s-62 216.666 -62 315.999h340c0 -110.667 21.5 -200 64.5 -268s106.667 -116.833 191 -146.5s190.166 -44.5 317.499 -44.5c338.667 0 508 130 508 390c0 150.667 -51.333 250.334 -154 299.001
s-246.334 73 -431.001 73c-36.667 -1.33301 -81 -2.66602 -133 -3.99902s-96.667 -2.66602 -134 -3.99902v270c36.667 0 88.334 -0.666992 155.001 -2s112 -2 136 -2z" />
    <glyph glyph-name="Edieresis" unicode="&#xe8;" 
d="M639 537h8l918 1605h438v-2142h-361v1606h-8l-938 -1606h-417v2142h360v-1605z" />
    <glyph glyph-name="Edieresis" unicode="&#x438;" 
d="M639 537h8l918 1605h438v-2142h-361v1606h-8l-938 -1606h-417v2142h360v-1605z" />
    <glyph glyph-name="Egrave" unicode="&#xe9;" 
d="M639 537h8l918 1605h438v-2142h-361v1606h-8l-938 -1606h-417v2142h360v-1605zM1774 2994c-42 -371.333 -259.333 -557 -652 -557c-365.333 0 -568.666 185.667 -609.999 557h201c30.667 -93.333 63.334 -158.666 98.001 -196c74 -84.667 188.667 -127 344 -127
c143.333 0 242.666 30 297.999 90s96.666 137.667 123.999 233h197z" />
    <glyph glyph-name="Egrave" unicode="&#x439;" 
d="M639 537h8l918 1605h438v-2142h-361v1606h-8l-938 -1606h-417v2142h360v-1605zM1774 2994c-42 -371.333 -259.333 -557 -652 -557c-365.333 0 -568.666 185.667 -609.999 557h201c30.667 -93.333 63.334 -158.666 98.001 -196c74 -84.667 188.667 -127 344 -127
c143.333 0 242.666 30 297.999 90s96.666 137.667 123.999 233h197z" />
    <glyph glyph-name="Iacute" unicode="&#xea;" horiz-adv-x="2048" 
d="M2052 0h-463l-790 999l-176 -188v-811h-349v2142h349v-905l921 905h459l-942 -880z" />
    <glyph glyph-name="Iacute" unicode="&#x43a;" horiz-adv-x="2048" 
d="M2052 0h-463l-790 999l-176 -188v-811h-349v2142h349v-905l921 905h459l-942 -880z" />
    <glyph glyph-name="Icircumflex" unicode="&#xeb;" horiz-adv-x="2109" 
d="M639 1843v-1265c0 -157.333 -41.667 -298.5 -125 -423.5s-238.333 -187.5 -465 -187.5v332c97.333 0 163.333 18.333 198 55s52 111.334 52 224.001v1564h1532v-2142h-361v1843h-831z" />
    <glyph glyph-name="Icircumflex" unicode="&#x43b;" horiz-adv-x="2109" 
d="M639 1843v-1265c0 -157.333 -41.667 -298.5 -125 -423.5s-238.333 -187.5 -465 -187.5v332c97.333 0 163.333 18.333 198 55s52 111.334 52 224.001v1564h1532v-2142h-361v1843h-831z" />
    <glyph glyph-name="Idieresis" unicode="&#xec;" horiz-adv-x="2957" 
d="M1483 459l659.001 1683h537v-2142l-348 -4v1245c0 93.333 2.5 183.5 7.5 270.5s9.16699 149.833 12.5 188.5h-29l-671 -1700h-344l-672 1700h-29c3.33301 -36.667 7.66602 -95.167 12.999 -175.5s8 -174.833 8 -283.5v-1241h-348v2142h536z" />
    <glyph glyph-name="Idieresis" unicode="&#x43c;" horiz-adv-x="2957" 
d="M1483 459l659.001 1683h537v-2142l-348 -4v1245c0 93.333 2.5 183.5 7.5 270.5s9.16699 149.833 12.5 188.5h-29l-671 -1700h-344l-672 1700h-29c3.33301 -36.667 7.66602 -95.167 12.999 -175.5s8 -174.833 8 -283.5v-1241h-348v2142h536z" />
    <glyph glyph-name="Igrave" unicode="&#xed;" 
d="M1642 2142h361v-2142h-361v971h-1003v-971h-360v2142h360v-885h1003v885z" />
    <glyph glyph-name="Igrave" unicode="&#x43d;" 
d="M1642 2142h361v-2142h-361v971h-1003v-971h-360v2142h360v-885h1003v885z" />
    <glyph glyph-name="Oacute" unicode="&#xee;" 
d="M1139 2204c215.333 0 398.333 -53.833 549 -161.5s262.667 -247.834 336 -420.501s110 -355.667 110 -549s-36.667 -376.166 -110 -548.499s-185.333 -312.333 -336 -420s-333.667 -161.5 -549 -161.5s-398.5 53.833 -549.5 161.5s-263.167 247.667 -336.5 420
s-110 355.166 -110 548.499s36.667 376.333 110 549s185.5 312.834 336.5 420.501s334.167 161.5 549.5 161.5zM1139 254c156.667 0 281.667 44.665 375 133.998s157.833 196.5 193.5 321.5s53.5 246.167 53.5 363.5s-17.833 238.5 -53.5 363.5
s-100.167 232.167 -193.5 321.5s-218.333 134 -375 134c-158 0 -283.5 -45 -376.5 -135s-157.333 -197.167 -193 -321.5s-53.5 -245.166 -53.5 -362.499s17.833 -238.166 53.5 -362.499s100 -231.5 193 -321.5s218.5 -135 376.5 -135z" />
    <glyph glyph-name="Oacute" unicode="&#x43e;" 
d="M1139 2204c215.333 0 398.333 -53.833 549 -161.5s262.667 -247.834 336 -420.501s110 -355.667 110 -549s-36.667 -376.166 -110 -548.499s-185.333 -312.333 -336 -420s-333.667 -161.5 -549 -161.5s-398.5 53.833 -549.5 161.5s-263.167 247.667 -336.5 420
s-110 355.166 -110 548.499s36.667 376.333 110 549s185.5 312.834 336.5 420.501s334.167 161.5 549.5 161.5zM1139 254c156.667 0 281.667 44.665 375 133.998s157.833 196.5 193.5 321.5s53.5 246.167 53.5 363.5s-17.833 238.5 -53.5 363.5
s-100.167 232.167 -193.5 321.5s-218.333 134 -375 134c-158 0 -283.5 -45 -376.5 -135s-157.333 -197.167 -193 -321.5s-53.5 -245.166 -53.5 -362.499s17.833 -238.166 53.5 -362.499s100 -231.5 193 -321.5s218.5 -135 376.5 -135z" />
    <glyph glyph-name="Ocircumflex" unicode="&#xef;" 
d="M2003 2142v-2142h-361v1843h-1003v-1843h-360v2142h1724z" />
    <glyph glyph-name="Ocircumflex" unicode="&#x43f;" 
d="M2003 2142v-2142h-361v1843h-1003v-1843h-360v2142h1724z" />
    <glyph glyph-name="apple" unicode="&#xf0;" 
d="M270 2142h339.999v-303h8c74.667 104.667 157.834 191.667 249.501 261s221.5 104 389.5 104c184.667 0 344.5 -46.5 479.5 -139.5s237.667 -221 308 -384s105.5 -344.833 105.5 -545.5c0 -193.333 -29.833 -380.5 -89.5 -561.5s-160 -332 -301 -453
s-324.833 -181.5 -551.5 -181.5c-133.333 0 -248.5 27 -345.5 81s-171.5 122.333 -223.5 205h-8v-1073h-361v2990zM1200 250c126.667 0 233.333 35.334 320 106.001s151.334 168.167 194.001 292.5s64 267.166 64 428.499c0 131.333 -11.833 254 -35.5 368
s-78.834 215 -165.501 303s-215 132 -385 132c-385.333 0 -578 -303 -578 -909c0 -255.333 61 -439.333 183 -552s256.333 -169 403 -169z" />
    <glyph glyph-name="apple" unicode="&#x440;" 
d="M270 2142h339.999v-303h8c74.667 104.667 157.834 191.667 249.501 261s221.5 104 389.5 104c184.667 0 344.5 -46.5 479.5 -139.5s237.667 -221 308 -384s105.5 -344.833 105.5 -545.5c0 -193.333 -29.833 -380.5 -89.5 -561.5s-160 -332 -301 -453
s-324.833 -181.5 -551.5 -181.5c-133.333 0 -248.5 27 -345.5 81s-171.5 122.333 -223.5 205h-8v-1073h-361v2990zM1200 250c126.667 0 233.333 35.334 320 106.001s151.334 168.167 194.001 292.5s64 267.166 64 428.499c0 131.333 -11.833 254 -35.5 368
s-78.834 215 -165.501 303s-215 132 -385 132c-385.333 0 -578 -303 -578 -909c0 -255.333 61 -439.333 183 -552s256.333 -169 403 -169z" />
    <glyph glyph-name="Ograve" unicode="&#xf1;" horiz-adv-x="2048" 
d="M1606 1421c-48 306 -217.333 459 -508 459c-205.333 0 -355 -79.333 -449 -238s-141 -348.334 -141 -569.001c0 -548.667 195.333 -823 586 -823c124 0 232.833 44.667 326.5 134s155.5 214 185.5 374h348c-22.667 -213.333 -103.334 -403.166 -242.001 -569.499
s-349 -249.5 -631 -249.5c-196.667 0 -367.167 45.833 -511.5 137.5s-254.833 218.667 -331.5 381s-115 347.166 -115 554.499c0 228 37.333 431.833 112 611.5s189 321.334 343 425.001s345 155.5 573 155.5c175.333 0 321.5 -37.333 438.5 -112
s204.333 -171.167 262 -289.5s91.834 -245.5 102.501 -381.5h-348z" />
    <glyph glyph-name="Ograve" unicode="&#x441;" horiz-adv-x="2048" 
d="M1606 1421c-48 306 -217.333 459 -508 459c-205.333 0 -355 -79.333 -449 -238s-141 -348.334 -141 -569.001c0 -548.667 195.333 -823 586 -823c124 0 232.833 44.667 326.5 134s155.5 214 185.5 374h348c-22.667 -213.333 -103.334 -403.166 -242.001 -569.499
s-349 -249.5 -631 -249.5c-196.667 0 -367.167 45.833 -511.5 137.5s-254.833 218.667 -331.5 381s-115 347.166 -115 554.499c0 228 37.333 431.833 112 611.5s189 321.334 343 425.001s345 155.5 573 155.5c175.333 0 321.5 -37.333 438.5 -112
s204.333 -171.167 262 -289.5s91.834 -245.5 102.501 -381.5h-348z" />
    <glyph glyph-name="Uacute" unicode="&#xf2;" horiz-adv-x="1819" 
d="M1090 1843v-1843h-361v1843h-684v299h1729v-299h-684z" />
    <glyph glyph-name="Uacute" unicode="&#x442;" horiz-adv-x="1819" 
d="M1090 1843v-1843h-361v1843h-684v299h1729v-299h-684z" />
    <glyph glyph-name="Ucircumflex" unicode="&#xf3;" horiz-adv-x="2048" 
d="M1606 2142h397.001l-176 -493.5l-172.5 -481.5l-221.5 -601l-200 -525c-96 -246 -169.5 -424 -220.5 -534s-102.167 -193.333 -153.5 -250s-109.666 -93.167 -174.999 -109.5s-162.333 -24.5 -291 -24.5c-22 0 -72.333 11 -151 33v328
c69.333 -24.667 141.666 -37 216.999 -37c64 0 112.667 10.5 146 31.5s65.166 63.167 95.499 126.5s76.833 176 139.5 338l-795 2199h410l569 -1745h8z" />
    <glyph glyph-name="Ucircumflex" unicode="&#x443;" horiz-adv-x="2048" 
d="M1606 2142h397.001l-176 -493.5l-172.5 -481.5l-221.5 -601l-200 -525c-96 -246 -169.5 -424 -220.5 -534s-102.167 -193.333 -153.5 -250s-109.666 -93.167 -174.999 -109.5s-162.333 -24.5 -291 -24.5c-22 0 -72.333 11 -151 33v328
c69.333 -24.667 141.666 -37 216.999 -37c64 0 112.667 10.5 146 31.5s65.166 63.167 95.499 126.5s76.833 176 139.5 338l-795 2199h410l569 -1745h8z" />
    <glyph glyph-name="Ugrave" unicode="&#xf4;" horiz-adv-x="2957" 
d="M1298 225l-8 0.000976562c-118.667 -190.667 -253.667 -286 -405 -286c-497.333 0 -746 398.667 -746 1196c0 187.333 22.5 361.833 67.5 523.5s120 293 225 394s239.833 151.5 404.5 151.5c76 0 139.5 -9.5 190.5 -28.5s92.833 -43 125.5 -72s63 -64.167 91 -105.5
l68 -102h8l-21 246v656h361v-656l-21 -246h9l70.5 105.5c25.667 38.333 55.167 72.333 88.5 101.999c33.333 29.667 75.333 53.834 126 72.5c50.667 18.667 114 28 190 28c165.333 0 300.166 -50.5 404.5 -151.5c104.333 -101 179 -232.333 224 -394
s67.5 -336.167 67.5 -523.5c0 -332 -52.667 -614.333 -158 -847s-301 -349 -587 -349c-152 0 -287.333 95.333 -406 286h-8v-1073h-361v1073zM1331 971.001c0 186 -10.5 344.5 -31.5 475.5s-62 236 -123 315s-147.167 118.5 -258.5 118.5
c-112.667 0 -199 -40.167 -259 -120.5s-99.5 -179.5 -118.5 -297.5s-28.5 -246.333 -28.5 -385c0 -172.667 10.5 -319.167 31.5 -439.5s61.167 -215 120.5 -284s144 -103.5 254 -103.5c275.333 0 413 240.333 413 721zM2040 250.001c158.667 0 265.834 70.5 321.5 211.5
c55.667 141 83.5 346.167 83.5 615.5c0 228 -27.167 418.333 -81.5 571s-162.166 230 -323.5 232c-112 0 -198.5 -39.667 -259.5 -119s-102 -184.333 -123 -315s-31.5 -289 -31.5 -475c0 -480.667 138 -721 414 -721z" />
    <glyph glyph-name="Ugrave" unicode="&#x444;" horiz-adv-x="2957" 
d="M1298 225l-8 0.000976562c-118.667 -190.667 -253.667 -286 -405 -286c-497.333 0 -746 398.667 -746 1196c0 187.333 22.5 361.833 67.5 523.5s120 293 225 394s239.833 151.5 404.5 151.5c76 0 139.5 -9.5 190.5 -28.5s92.833 -43 125.5 -72s63 -64.167 91 -105.5
l68 -102h8l-21 246v656h361v-656l-21 -246h9l70.5 105.5c25.667 38.333 55.167 72.333 88.5 101.999c33.333 29.667 75.333 53.834 126 72.5c50.667 18.667 114 28 190 28c165.333 0 300.166 -50.5 404.5 -151.5c104.333 -101 179 -232.333 224 -394
s67.5 -336.167 67.5 -523.5c0 -332 -52.667 -614.333 -158 -847s-301 -349 -587 -349c-152 0 -287.333 95.333 -406 286h-8v-1073h-361v1073zM1331 971.001c0 186 -10.5 344.5 -31.5 475.5s-62 236 -123 315s-147.167 118.5 -258.5 118.5
c-112.667 0 -199 -40.167 -259 -120.5s-99.5 -179.5 -118.5 -297.5s-28.5 -246.333 -28.5 -385c0 -172.667 10.5 -319.167 31.5 -439.5s61.167 -215 120.5 -284s144 -103.5 254 -103.5c275.333 0 413 240.333 413 721zM2040 250.001c158.667 0 265.834 70.5 321.5 211.5
c55.667 141 83.5 346.167 83.5 615.5c0 228 -27.167 418.333 -81.5 571s-162.166 230 -323.5 232c-112 0 -198.5 -39.667 -259.5 -119s-102 -184.333 -123 -315s-31.5 -289 -31.5 -475c0 -480.667 138 -721 414 -721z" />
    <glyph glyph-name="dotlessi" unicode="&#xf5;" horiz-adv-x="2048" 
d="M2007 0h-459l-532 807l-516 -807h-455l754 1102l-717 1040h463l495 -753l496 753h442l-725 -1040z" />
    <glyph glyph-name="dotlessi" unicode="&#x445;" horiz-adv-x="2048" 
d="M2007 0h-459l-532 807l-516 -807h-455l754 1102l-717 1040h463l495 -753l496 753h442l-725 -1040z" />
    <glyph glyph-name="circumflex" unicode="&#xf6;" 
d="M1880 0h-1601v2142h360v-1843h1003v1843h361v-1843h197v-848h-320v549z" />
    <glyph glyph-name="circumflex" unicode="&#x446;" 
d="M1880 0h-1601v2142h360v-1843h1003v1843h361v-1843h197v-848h-320v549z" />
    <glyph glyph-name="tilde" unicode="&#xf7;" 
d="M1642 0l-0.000976562 966.999c-63.333 -24.667 -164.666 -55.5 -303.999 -92.5s-283.666 -55.5 -432.999 -55.5c-417.333 0 -626 187 -626 561v762h360v-708c0 -199.333 132.333 -299 397 -299c115.333 0 231.666 14.333 348.999 43s203 52.334 257 71.001v893h361v-2142
h-361z" />
    <glyph glyph-name="tilde" unicode="&#x447;" 
d="M1642 0l-0.000976562 966.999c-63.333 -24.667 -164.666 -55.5 -303.999 -92.5s-283.666 -55.5 -432.999 -55.5c-417.333 0 -626 187 -626 561v762h360v-708c0 -199.333 132.333 -299 397 -299c115.333 0 231.666 14.333 348.999 43s203 52.334 257 71.001v893h361v-2142
h-361z" />
    <glyph glyph-name="macron" unicode="&#xf8;" horiz-adv-x="2957" 
d="M1659 299h659v1843h361v-2142h-2400v2142h360v-1843h659v1843h361v-1843z" />
    <glyph glyph-name="macron" unicode="&#x448;" horiz-adv-x="2957" 
d="M1659 299h659v1843h361v-2142h-2400v2142h360v-1843h659v1843h361v-1843z" />
    <glyph glyph-name="breve" unicode="&#xf9;" horiz-adv-x="2957" 
d="M2556 0h-2277v2142h360v-1843h659v1843h361v-1843h659v1843h361v-1843h196v-848h-319v549z" />
    <glyph glyph-name="breve" unicode="&#x449;" horiz-adv-x="2957" 
d="M2556 0h-2277v2142h360v-1843h659v1843h361v-1843h659v1843h361v-1843h196v-848h-319v549z" />
    <glyph glyph-name="dotaccent" unicode="&#xfa;" 
d="M2134 631c0 -182.667 -65.667 -333.5 -197 -452.5s-333.333 -178.5 -606 -178.5h-819v1843h-512v299h872v-901h459c273.333 0 475.5 -53.5 606.5 -160.5s196.5 -256.833 196.5 -449.5zM872 299l455 0.000976562c161.333 0 275.333 26.333 342 79s100 139.667 100 261
c0 113.333 -33 194.166 -99 242.499s-179 72.5 -339 72.5h-459v-655z" />
    <glyph glyph-name="dotaccent" unicode="&#x44a;" 
d="M2134 631c0 -182.667 -65.667 -333.5 -197 -452.5s-333.333 -178.5 -606 -178.5h-819v1843h-512v299h872v-901h459c273.333 0 475.5 -53.5 606.5 -160.5s196.5 -256.833 196.5 -449.5zM872 299l455 0.000976562c161.333 0 275.333 26.333 342 79s100 139.667 100 261
c0 113.333 -33 194.166 -99 242.499s-179 72.5 -339 72.5h-459v-655z" />
    <glyph glyph-name="ring" unicode="&#xfb;" horiz-adv-x="2884" 
d="M2605 0h-360v2142h360v-2142zM1905 631c0 -117.333 -27.5 -223.333 -82.5 -318s-142.833 -170.5 -263.5 -227.5s-273 -85.5 -457 -85.5h-823v2142h360v-901h463c535.333 0 803 -203.333 803 -610zM639 299l458.999 0.000976562c160.667 0 274.5 26.5 341.5 79.5
s100.5 139.833 100.5 260.5c0 111.333 -34.667 191.666 -104 240.999s-180.666 74 -333.999 74h-463v-655z" />
    <glyph glyph-name="ring" unicode="&#x44b;" horiz-adv-x="2884" 
d="M2605 0h-360v2142h360v-2142zM1905 631c0 -117.333 -27.5 -223.333 -82.5 -318s-142.833 -170.5 -263.5 -227.5s-273 -85.5 -457 -85.5h-823v2142h360v-901h463c535.333 0 803 -203.333 803 -610zM639 299l458.999 0.000976562c160.667 0 274.5 26.5 341.5 79.5
s100.5 139.833 100.5 260.5c0 111.333 -34.667 191.666 -104 240.999s-180.666 74 -333.999 74h-463v-655z" />
    <glyph glyph-name="cedilla" unicode="&#xfc;" horiz-adv-x="2048" 
d="M1905 631c0 -117.333 -27.5 -223.333 -82.5 -318s-142.833 -170.5 -263.5 -227.5s-273 -85.5 -457 -85.5h-823v2142h360v-901h463c535.333 0 803 -203.333 803 -610zM639 299l458.999 0.000976562c160.667 0 274.5 26.5 341.5 79.5s100.5 139.833 100.5 260.5
c0 111.333 -34.667 191.666 -104 240.999s-180.666 74 -333.999 74h-463v-655z" />
    <glyph glyph-name="cedilla" unicode="&#x44c;" horiz-adv-x="2048" 
d="M1905 631c0 -117.333 -27.5 -223.333 -82.5 -318s-142.833 -170.5 -263.5 -227.5s-273 -85.5 -457 -85.5h-823v2142h360v-901h463c535.333 0 803 -203.333 803 -610zM639 299l458.999 0.000976562c160.667 0 274.5 26.5 341.5 79.5s100.5 139.833 100.5 260.5
c0 111.333 -34.667 191.666 -104 240.999s-180.666 74 -333.999 74h-463v-655z" />
    <glyph glyph-name="hungarumlaut" unicode="&#xfd;" horiz-adv-x="2236" 
d="M1667 1241c0 112.667 -22.835 218.831 -68.502 318.498s-115 180 -208 241s-205.5 91.5 -337.5 91.5c-158 0 -284 -48.5 -378 -145.5s-156.667 -205.5 -188 -325.5h-335c18 106.667 63.333 219.334 136 338.001s174 219.667 304 303s283.667 126.333 461 129
c226.667 0 416.334 -55 569.001 -165s264.5 -249.333 335.5 -418s106.5 -340 106.5 -514c0 -228 -39.333 -429.333 -118 -604s-196 -310.167 -352 -406.5s-346 -144.5 -570 -144.5c-166 0 -312 42 -438 126s-225.5 182.833 -298.5 296.5s-119.833 217.167 -140.5 310.5h357
c8 -53.333 38.5 -113.333 91.5 -180s117.833 -123.667 194.5 -171s153.334 -71 230.001 -71c207.333 0 368.333 63.833 483 191.5s172 299.834 172 516.501h-1011v283h1003z" />
    <glyph glyph-name="hungarumlaut" unicode="&#x44d;" horiz-adv-x="2236" 
d="M1667 1241c0 112.667 -22.835 218.831 -68.502 318.498s-115 180 -208 241s-205.5 91.5 -337.5 91.5c-158 0 -284 -48.5 -378 -145.5s-156.667 -205.5 -188 -325.5h-335c18 106.667 63.333 219.334 136 338.001s174 219.667 304 303s283.667 126.333 461 129
c226.667 0 416.334 -55 569.001 -165s264.5 -249.333 335.5 -418s106.5 -340 106.5 -514c0 -228 -39.333 -429.333 -118 -604s-196 -310.167 -352 -406.5s-346 -144.5 -570 -144.5c-166 0 -312 42 -438 126s-225.5 182.833 -298.5 296.5s-119.833 217.167 -140.5 310.5h357
c8 -53.333 38.5 -113.333 91.5 -180s117.833 -123.667 194.5 -171s153.334 -71 230.001 -71c207.333 0 368.333 63.833 483 191.5s172 299.834 172 516.501h-1011v283h1003z" />
    <glyph glyph-name="ogonek" unicode="&#xfe;" horiz-adv-x="3072" 
d="M1008 971l-369 -0.00195312v-971h-360v2142h360v-885h377c17.333 131.333 47.833 252.833 91.5 364.5s103.667 211.5 180 299.5s170.333 157.167 282 207.5s241.167 75.5 388.5 75.5c215.333 0 394.666 -53.5 538 -160.5c143.333 -107 248.5 -246.667 315.5 -419
s100.5 -356.166 100.5 -551.499s-33.333 -379 -100 -551s-171.834 -311.5 -315.501 -418.5s-323.167 -160.5 -538.5 -160.5c-154 0 -289.333 27.833 -406 83.5s-213.5 131.834 -290.5 228.501s-136.167 206.667 -177.5 330s-66.666 252 -75.999 386zM1958 253.998
c226.667 0 380.334 84.0029 461 252.003c80.667 168 121 357 121 567c0 201.333 -42.833 388.166 -128.5 560.499s-236.834 258.5 -453.5 258.5c-226 0 -379.5 -84.333 -460.5 -253s-121.5 -357.334 -121.5 -566.001s40.5 -397.334 121.5 -566.001s234.5 -253 460.5 -253z
" />
    <glyph glyph-name="ogonek" unicode="&#x44e;" horiz-adv-x="3072" 
d="M1008 971l-369 -0.00195312v-971h-360v2142h360v-885h377c17.333 131.333 47.833 252.833 91.5 364.5s103.667 211.5 180 299.5s170.333 157.167 282 207.5s241.167 75.5 388.5 75.5c215.333 0 394.666 -53.5 538 -160.5c143.333 -107 248.5 -246.667 315.5 -419
s100.5 -356.166 100.5 -551.499s-33.333 -379 -100 -551s-171.834 -311.5 -315.501 -418.5s-323.167 -160.5 -538.5 -160.5c-154 0 -289.333 27.833 -406 83.5s-213.5 131.834 -290.5 228.501s-136.167 206.667 -177.5 330s-66.666 252 -75.999 386zM1958 253.998
c226.667 0 380.334 84.0029 461 252.003c80.667 168 121 357 121 567c0 201.333 -42.833 388.166 -128.5 560.499s-236.834 258.5 -453.5 258.5c-226 0 -379.5 -84.333 -460.5 -253s-121.5 -357.334 -121.5 -566.001s40.5 -397.334 121.5 -566.001s234.5 -253 460.5 -253z
" />
    <glyph glyph-name="caron" unicode="&#xff;" 
d="M164 0l662.999 909c-72.667 0 -151 25.5 -235 76.5s-155.167 123 -213.5 216s-87.5 197.833 -87.5 314.5c0 200 69.833 354.333 209.5 463s331.834 163 576.501 163h914v-2142h-361v901h-389l-635 -901h-442zM1630 1843h-553c-267.333 0 -401 -109 -401 -327
c0 -218.667 133.667 -328 401 -328h553v655z" />
    <glyph glyph-name="caron" unicode="&#x44f;" 
d="M164 0l662.999 909c-72.667 0 -151 25.5 -235 76.5s-155.167 123 -213.5 216s-87.5 197.833 -87.5 314.5c0 200 69.833 354.333 209.5 463s331.834 163 576.501 163h914v-2142h-361v901h-389l-635 -901h-442zM1630 1843h-553c-267.333 0 -401 -109 -401 -327
c0 -218.667 133.667 -328 401 -328h553v655z" />
    <glyph glyph-name="ntilde" unicode="&#x2013;" 
d="M2277 1282v-299h-2277v299h2277z" />
    <glyph glyph-name="oacute" unicode="&#x2014;" horiz-adv-x="4096" 
d="M4096 1282v-299h-4096v299h4096z" />
    <glyph glyph-name="edieresis" unicode="&#x2018;" horiz-adv-x="909" 
d="M692 2359v-434h-426v402c0 172 32 313 96 423s174 183.333 330 220v-193c-93.333 -14 -152.833 -60 -178.5 -138s-38.5 -171.333 -38.5 -280h217z" />
    <glyph glyph-name="iacute" unicode="&#x2019;" horiz-adv-x="909" 
d="M217 2507l0.000976562 434h426v-401c0 -172.667 -31.833 -314 -95.5 -424s-173.834 -183.333 -330.501 -220v193c93.333 14.667 152.833 60.834 178.5 138.5c25.667 77.667 38.5 170.834 38.5 279.5h-217z" />
    <glyph glyph-name="Ccedilla" unicode="&#x201a;" horiz-adv-x="909" 
d="M217 0v434h426v-401c0 -172.667 -32 -313.834 -96 -423.501s-174 -182.834 -330 -219.501v192c93.333 14.667 152.833 60.834 178.5 138.501s38.5 170.834 38.5 279.501h-217z" />
    <glyph glyph-name="igrave" unicode="&#x201c;" horiz-adv-x="1364" 
d="M1257 2359v-434h-426v402c0 172 32 313 96 423s174 183.333 330 220v-193c-93.333 -14 -152.833 -60 -178.5 -138s-38.5 -171.333 -38.5 -280h217zM582 2359v-434h-426v402c0 172 32 313 96 423s174 183.333 330 220v-193c-93.333 -14 -152.833 -60 -178.5 -138
s-38.5 -171.333 -38.5 -280h217z" />
    <glyph glyph-name="icircumflex" unicode="&#x201d;" horiz-adv-x="1364" 
d="M106 2507l0.000976562 434h426v-401c0 -172.667 -31.833 -314 -95.5 -424s-173.834 -183.333 -330.501 -220v193c92.667 14.667 152.167 60.834 178.5 138.5c26.333 77.667 39.5 170.834 39.5 279.5h-218zM782.001 2507l0.000976562 434h426v-401
c0 -172.667 -31.833 -314 -95.5 -424s-173.834 -183.333 -330.501 -220v193c93.333 14.667 152.833 60.834 178.5 138.5c25.667 77.667 38.5 170.834 38.5 279.5h-217z" />
    <glyph glyph-name="Ntilde" unicode="&#x201e;" horiz-adv-x="1364" 
d="M106 0v434h426v-401c0 -172.667 -32 -313.834 -96 -423.501s-174 -182.834 -330 -219.501v192c92.667 14.667 152.167 60.834 178.5 138.501s39.5 170.834 39.5 279.501h-218zM782 0v434h426v-401c0 -172.667 -32 -313.834 -96 -423.501s-174 -182.834 -330 -219.501v192
c93.333 14.667 152.833 60.834 178.5 138.501s38.5 170.834 38.5 279.501h-217z" />
    <glyph glyph-name="Udieresis" unicode="&#x2020;" 
d="M1335 1765v-2416h-385v2416h-774v312h774v864h385v-864h770v-312h-770z" />
    <glyph glyph-name="aacute" unicode="&#x2021;" 
d="M1335 1798v-1311h770v-311h-770v-827h-385v827h-774v311h774v1311h-774v311h774v832h385v-832h770v-311h-770z" />
    <glyph glyph-name="idieresis" unicode="&#x2022;" horiz-adv-x="1434" 
d="M1364 1470c0 -116.667 -29.001 -224.168 -87.001 -322.501s-137 -176.333 -237 -234s-207.667 -86.5 -323 -86.5c-178 0 -329.667 62.333 -455 187s-188 276.667 -188 456c0 117.333 28.333 225.5 85 324.5s134.334 177.667 233.001 236s207 87.5 325 87.5
c116 0 223.833 -29.167 323.5 -87.5s178.5 -137.166 236.5 -236.499s87 -207.333 87 -324z" />
    <glyph glyph-name="Odieresis" unicode="&#x2026;" horiz-adv-x="4096" 
d="M897 434v-434h-426v434h426zM2261 434v-434h-426v434h426zM3625 434v-434h-426v434h426z" />
    <glyph glyph-name="acircumflex" unicode="&#x2030;" horiz-adv-x="4096" 
d="M29 2208c0 115.333 28.499 222.164 85.499 320.498c57 98.333 134.5 176 232.5 233s205 85.5 321 85.5c114.667 0 221.167 -28.667 319.5 -86s176.166 -135.166 233.499 -233.5c57.333 -98.333 86 -204.833 86 -319.5c0 -116 -28.5 -223 -85.5 -321
s-134.667 -175.5 -233 -232.5s-205.166 -85.5 -320.499 -85.5s-222.166 28.333 -320.499 85s-176 133.834 -233 231.501s-85.5 205.167 -85.5 322.501zM286.999 2208c0 -105.333 36.498 -195.168 109.498 -269.501s163.5 -111.5 271.5 -111.5
c104.667 0 194.334 37.333 269.001 112s112 164.334 112 269.001c0 106.667 -37.167 196.834 -111.5 270.5c-74.333 73.667 -164.166 110.5 -269.499 110.5c-70.667 0 -135 -17.167 -193 -51.5s-103.833 -80.833 -137.5 -139.5s-50.5 -122 -50.5 -190zM1307 609.996
c0 116 28.499 223.001 85.499 321.001s134.5 175.5 232.5 232.5s205 85.5 321 85.5c114.667 0 221 -28.5 319 -85.5s175.833 -134.833 233.5 -233.5s86.5 -205.334 86.5 -320.001c0 -116 -28.5 -222.833 -85.5 -320.5s-134.667 -175.167 -233 -232.5
s-205.166 -86 -320.5 -86c-115.333 0 -222.166 28.333 -320.499 85s-176 134 -233 232s-85.5 205.333 -85.5 322zM1565 609.997c0 -105.333 36.5 -195.167 109.5 -269.5s163.5 -111.5 271.5 -111.5c104 0 193.5 37.167 268.5 111.5s112.5 164.166 112.5 269.499
c0 68.667 -17.167 132.334 -51.5 191.001s-81.166 105 -140.5 139c-59.333 34 -122.333 51 -189 51c-70.667 0 -135 -17.167 -193 -51.5s-103.833 -80.833 -137.5 -139.5s-50.5 -122 -50.5 -190zM2793 609.996c0 116 28.667 223 86 321s134.833 175.5 232.5 232.5
s204.5 85.5 320.5 85.5c114.667 0 221.167 -28.667 319.5 -86s176.166 -135.166 233.5 -233.499c57.333 -98.333 86 -204.833 86 -319.5c0 -116 -28.5 -222.833 -85.5 -320.5s-134.5 -175.167 -232.5 -232.5s-205 -86 -321 -86c-115.333 0 -222 28.167 -320 84.5
s-175.667 133.666 -233 231.999s-86 205.833 -86 322.5zM3052 609.996c0 -105.333 36.5 -195.169 109.5 -269.502s163.167 -111.5 270.5 -111.5c104.667 0 194.334 37.333 269 112c74.667 74.667 112 164.334 112 269.001c0 106.667 -37.167 196.834 -111.5 270.501
s-164.166 110.5 -269.5 110.5c-71.333 0 -135.833 -17.333 -193.5 -52s-103.167 -81.167 -136.5 -139.5s-50 -121.5 -50 -189.5zM2228 2878.99l-1626 -2957h-225l1626 2957h225z" />
    <glyph glyph-name="atilde" unicode="&#x2039;" horiz-adv-x="1364" 
d="M1004 803v-361l-644 504v377l644 504v-361l-431 -331z" />
    <glyph glyph-name="otilde" unicode="&#x203a;" horiz-adv-x="1364" 
d="M360 442v361l431 332l-431 331v361l644 -504v-377z" />
    <glyph glyph-name="ocircumflex" unicode="&#x2122;" horiz-adv-x="4096" 
d="M2281 2941l484 -1241l475 1241h459v-1688h-299v1373h-9l-528 -1373h-205l-528 1373h-8v-1373h-299v1688h458zM1528 2941v-246h-520v-1442h-299v1442h-521v246h1340z" />
    <glyph glyph-name="summation" unicode="&#x2219;" horiz-adv-x="1139" 
d="M573 1290c66 0 124.834 -25 176.501 -75s77.5 -111 77.5 -183c0 -67.333 -24.833 -126.5 -74.5 -177.5s-110.834 -76.5 -183.501 -76.5c-68.667 0 -128.167 25.5 -178.5 76.5s-75.5 110.167 -75.5 177.5c0 74 25.5 135.5 76.5 184.5s111.5 73.5 181.5 73.5z" />
    <glyph glyph-name=".null" horiz-adv-x="0" 
 />
    <glyph glyph-name="nonmarkingreturn" horiz-adv-x="0" 
 />
    </font>
</defs>
</svg>
